G04*
G04 #@! TF.GenerationSoftware,Altium Limited,Altium Designer,19.0.5 (141)*
G04*
G04 Layer_Color=8388736*
%FSLAX43Y43*%
%MOMM*%
G71*
G01*
G75*
G04:AMPARAMS|DCode=14|XSize=1.803mm|YSize=1.803mm|CornerRadius=0.502mm|HoleSize=0mm|Usage=FLASHONLY|Rotation=270.000|XOffset=0mm|YOffset=0mm|HoleType=Round|Shape=RoundedRectangle|*
%AMROUNDEDRECTD14*
21,1,1.803,0.800,0,0,270.0*
21,1,0.800,1.803,0,0,270.0*
1,1,1.003,-0.400,-0.400*
1,1,1.003,-0.400,0.400*
1,1,1.003,0.400,0.400*
1,1,1.003,0.400,-0.400*
%
%ADD14ROUNDEDRECTD14*%
G04:AMPARAMS|DCode=15|XSize=4.203mm|YSize=5.203mm|CornerRadius=1.102mm|HoleSize=0mm|Usage=FLASHONLY|Rotation=270.000|XOffset=0mm|YOffset=0mm|HoleType=Round|Shape=RoundedRectangle|*
%AMROUNDEDRECTD15*
21,1,4.203,3.000,0,0,270.0*
21,1,2.000,5.203,0,0,270.0*
1,1,2.203,-1.500,-1.000*
1,1,2.203,-1.500,1.000*
1,1,2.203,1.500,1.000*
1,1,2.203,1.500,-1.000*
%
%ADD15ROUNDEDRECTD15*%
G04:AMPARAMS|DCode=16|XSize=1.003mm|YSize=1.003mm|CornerRadius=0.302mm|HoleSize=0mm|Usage=FLASHONLY|Rotation=180.000|XOffset=0mm|YOffset=0mm|HoleType=Round|Shape=RoundedRectangle|*
%AMROUNDEDRECTD16*
21,1,1.003,0.400,0,0,180.0*
21,1,0.400,1.003,0,0,180.0*
1,1,0.603,-0.200,0.200*
1,1,0.603,0.200,0.200*
1,1,0.603,0.200,-0.200*
1,1,0.603,-0.200,-0.200*
%
%ADD16ROUNDEDRECTD16*%
G04:AMPARAMS|DCode=17|XSize=1.053mm|YSize=1.003mm|CornerRadius=0.302mm|HoleSize=0mm|Usage=FLASHONLY|Rotation=0.000|XOffset=0mm|YOffset=0mm|HoleType=Round|Shape=RoundedRectangle|*
%AMROUNDEDRECTD17*
21,1,1.053,0.400,0,0,0.0*
21,1,0.450,1.003,0,0,0.0*
1,1,0.603,0.225,-0.200*
1,1,0.603,-0.225,-0.200*
1,1,0.603,-0.225,0.200*
1,1,0.603,0.225,0.200*
%
%ADD17ROUNDEDRECTD17*%
G04:AMPARAMS|DCode=18|XSize=4.703mm|YSize=2.503mm|CornerRadius=0.677mm|HoleSize=0mm|Usage=FLASHONLY|Rotation=270.000|XOffset=0mm|YOffset=0mm|HoleType=Round|Shape=RoundedRectangle|*
%AMROUNDEDRECTD18*
21,1,4.703,1.150,0,0,270.0*
21,1,3.350,2.503,0,0,270.0*
1,1,1.353,-0.575,-1.675*
1,1,1.353,-0.575,1.675*
1,1,1.353,0.575,1.675*
1,1,1.353,0.575,-1.675*
%
%ADD18ROUNDEDRECTD18*%
G04:AMPARAMS|DCode=19|XSize=1.703mm|YSize=0.483mm|CornerRadius=0.172mm|HoleSize=0mm|Usage=FLASHONLY|Rotation=180.000|XOffset=0mm|YOffset=0mm|HoleType=Round|Shape=RoundedRectangle|*
%AMROUNDEDRECTD19*
21,1,1.703,0.140,0,0,180.0*
21,1,1.360,0.483,0,0,180.0*
1,1,0.343,-0.680,0.070*
1,1,0.343,0.680,0.070*
1,1,0.343,0.680,-0.070*
1,1,0.343,-0.680,-0.070*
%
%ADD19ROUNDEDRECTD19*%
G04:AMPARAMS|DCode=20|XSize=1.703mm|YSize=0.603mm|CornerRadius=0.202mm|HoleSize=0mm|Usage=FLASHONLY|Rotation=180.000|XOffset=0mm|YOffset=0mm|HoleType=Round|Shape=RoundedRectangle|*
%AMROUNDEDRECTD20*
21,1,1.703,0.200,0,0,180.0*
21,1,1.300,0.603,0,0,180.0*
1,1,0.403,-0.650,0.100*
1,1,0.403,0.650,0.100*
1,1,0.403,0.650,-0.100*
1,1,0.403,-0.650,-0.100*
%
%ADD20ROUNDEDRECTD20*%
G04:AMPARAMS|DCode=21|XSize=1.703mm|YSize=0.483mm|CornerRadius=0.172mm|HoleSize=0mm|Usage=FLASHONLY|Rotation=90.000|XOffset=0mm|YOffset=0mm|HoleType=Round|Shape=RoundedRectangle|*
%AMROUNDEDRECTD21*
21,1,1.703,0.140,0,0,90.0*
21,1,1.360,0.483,0,0,90.0*
1,1,0.343,0.070,0.680*
1,1,0.343,0.070,-0.680*
1,1,0.343,-0.070,-0.680*
1,1,0.343,-0.070,0.680*
%
%ADD21ROUNDEDRECTD21*%
G04:AMPARAMS|DCode=22|XSize=1.703mm|YSize=0.603mm|CornerRadius=0.202mm|HoleSize=0mm|Usage=FLASHONLY|Rotation=90.000|XOffset=0mm|YOffset=0mm|HoleType=Round|Shape=RoundedRectangle|*
%AMROUNDEDRECTD22*
21,1,1.703,0.200,0,0,90.0*
21,1,1.300,0.603,0,0,90.0*
1,1,0.403,0.100,0.650*
1,1,0.403,0.100,-0.650*
1,1,0.403,-0.100,-0.650*
1,1,0.403,-0.100,0.650*
%
%ADD22ROUNDEDRECTD22*%
G04:AMPARAMS|DCode=23|XSize=10.203mm|YSize=10.203mm|CornerRadius=2.602mm|HoleSize=0mm|Usage=FLASHONLY|Rotation=270.000|XOffset=0mm|YOffset=0mm|HoleType=Round|Shape=RoundedRectangle|*
%AMROUNDEDRECTD23*
21,1,10.203,5.000,0,0,270.0*
21,1,5.000,10.203,0,0,270.0*
1,1,5.203,-2.500,-2.500*
1,1,5.203,-2.500,2.500*
1,1,5.203,2.500,2.500*
1,1,5.203,2.500,-2.500*
%
%ADD23ROUNDEDRECTD23*%
G04:AMPARAMS|DCode=24|XSize=3.203mm|YSize=1.303mm|CornerRadius=0.377mm|HoleSize=0mm|Usage=FLASHONLY|Rotation=270.000|XOffset=0mm|YOffset=0mm|HoleType=Round|Shape=RoundedRectangle|*
%AMROUNDEDRECTD24*
21,1,3.203,0.550,0,0,270.0*
21,1,2.450,1.303,0,0,270.0*
1,1,0.753,-0.275,-1.225*
1,1,0.753,-0.275,1.225*
1,1,0.753,0.275,1.225*
1,1,0.753,0.275,-1.225*
%
%ADD24ROUNDEDRECTD24*%
G04:AMPARAMS|DCode=25|XSize=2.403mm|YSize=2.703mm|CornerRadius=0.652mm|HoleSize=0mm|Usage=FLASHONLY|Rotation=90.000|XOffset=0mm|YOffset=0mm|HoleType=Round|Shape=RoundedRectangle|*
%AMROUNDEDRECTD25*
21,1,2.403,1.400,0,0,90.0*
21,1,1.100,2.703,0,0,90.0*
1,1,1.303,0.700,0.550*
1,1,1.303,0.700,-0.550*
1,1,1.303,-0.700,-0.550*
1,1,1.303,-0.700,0.550*
%
%ADD25ROUNDEDRECTD25*%
G04:AMPARAMS|DCode=26|XSize=1.603mm|YSize=1.403mm|CornerRadius=0.402mm|HoleSize=0mm|Usage=FLASHONLY|Rotation=180.000|XOffset=0mm|YOffset=0mm|HoleType=Round|Shape=RoundedRectangle|*
%AMROUNDEDRECTD26*
21,1,1.603,0.600,0,0,180.0*
21,1,0.800,1.403,0,0,180.0*
1,1,0.803,-0.400,0.300*
1,1,0.803,0.400,0.300*
1,1,0.803,0.400,-0.300*
1,1,0.803,-0.400,-0.300*
%
%ADD26ROUNDEDRECTD26*%
G04:AMPARAMS|DCode=27|XSize=1.003mm|YSize=1.003mm|CornerRadius=0.302mm|HoleSize=0mm|Usage=FLASHONLY|Rotation=270.000|XOffset=0mm|YOffset=0mm|HoleType=Round|Shape=RoundedRectangle|*
%AMROUNDEDRECTD27*
21,1,1.003,0.400,0,0,270.0*
21,1,0.400,1.003,0,0,270.0*
1,1,0.603,-0.200,-0.200*
1,1,0.603,-0.200,0.200*
1,1,0.603,0.200,0.200*
1,1,0.603,0.200,-0.200*
%
%ADD27ROUNDEDRECTD27*%
G04:AMPARAMS|DCode=28|XSize=0.803mm|YSize=1.803mm|CornerRadius=0.252mm|HoleSize=0mm|Usage=FLASHONLY|Rotation=90.000|XOffset=0mm|YOffset=0mm|HoleType=Round|Shape=RoundedRectangle|*
%AMROUNDEDRECTD28*
21,1,0.803,1.300,0,0,90.0*
21,1,0.300,1.803,0,0,90.0*
1,1,0.503,0.650,0.150*
1,1,0.503,0.650,-0.150*
1,1,0.503,-0.650,-0.150*
1,1,0.503,-0.650,0.150*
%
%ADD28ROUNDEDRECTD28*%
G04:AMPARAMS|DCode=29|XSize=5.003mm|YSize=1.403mm|CornerRadius=0.402mm|HoleSize=0mm|Usage=FLASHONLY|Rotation=180.000|XOffset=0mm|YOffset=0mm|HoleType=Round|Shape=RoundedRectangle|*
%AMROUNDEDRECTD29*
21,1,5.003,0.600,0,0,180.0*
21,1,4.200,1.403,0,0,180.0*
1,1,0.803,-2.100,0.300*
1,1,0.803,2.100,0.300*
1,1,0.803,2.100,-0.300*
1,1,0.803,-2.100,-0.300*
%
%ADD29ROUNDEDRECTD29*%
G04:AMPARAMS|DCode=30|XSize=2.703mm|YSize=6.203mm|CornerRadius=0.727mm|HoleSize=0mm|Usage=FLASHONLY|Rotation=270.000|XOffset=0mm|YOffset=0mm|HoleType=Round|Shape=RoundedRectangle|*
%AMROUNDEDRECTD30*
21,1,2.703,4.750,0,0,270.0*
21,1,1.250,6.203,0,0,270.0*
1,1,1.453,-2.375,-0.625*
1,1,1.453,-2.375,0.625*
1,1,1.453,2.375,0.625*
1,1,1.453,2.375,-0.625*
%
%ADD30ROUNDEDRECTD30*%
G04:AMPARAMS|DCode=31|XSize=1.603mm|YSize=1.403mm|CornerRadius=0.402mm|HoleSize=0mm|Usage=FLASHONLY|Rotation=90.000|XOffset=0mm|YOffset=0mm|HoleType=Round|Shape=RoundedRectangle|*
%AMROUNDEDRECTD31*
21,1,1.603,0.600,0,0,90.0*
21,1,0.800,1.403,0,0,90.0*
1,1,0.803,0.300,0.400*
1,1,0.803,0.300,-0.400*
1,1,0.803,-0.300,-0.400*
1,1,0.803,-0.300,0.400*
%
%ADD31ROUNDEDRECTD31*%
%ADD32C,1.603*%
G04:AMPARAMS|DCode=33|XSize=1.603mm|YSize=1.603mm|CornerRadius=0.452mm|HoleSize=0mm|Usage=FLASHONLY|Rotation=0.000|XOffset=0mm|YOffset=0mm|HoleType=Round|Shape=RoundedRectangle|*
%AMROUNDEDRECTD33*
21,1,1.603,0.700,0,0,0.0*
21,1,0.700,1.603,0,0,0.0*
1,1,0.903,0.350,-0.350*
1,1,0.903,-0.350,-0.350*
1,1,0.903,-0.350,0.350*
1,1,0.903,0.350,0.350*
%
%ADD33ROUNDEDRECTD33*%
%ADD34O,2.703X1.953*%
%ADD35C,1.903*%
%ADD36C,3.203*%
G04:AMPARAMS|DCode=37|XSize=1.803mm|YSize=1.803mm|CornerRadius=0.502mm|HoleSize=0mm|Usage=FLASHONLY|Rotation=0.000|XOffset=0mm|YOffset=0mm|HoleType=Round|Shape=RoundedRectangle|*
%AMROUNDEDRECTD37*
21,1,1.803,0.800,0,0,0.0*
21,1,0.800,1.803,0,0,0.0*
1,1,1.003,0.400,-0.400*
1,1,1.003,-0.400,-0.400*
1,1,1.003,-0.400,0.400*
1,1,1.003,0.400,0.400*
%
%ADD37ROUNDEDRECTD37*%
%ADD38C,5.203*%
D14*
X8700Y5508D02*
D03*
Y7628D02*
D03*
D15*
X13100Y6568D02*
D03*
D16*
X83000Y8238D02*
D03*
Y9762D02*
D03*
Y18788D02*
D03*
Y20212D02*
D03*
X28238Y13165D02*
D03*
Y14741D02*
D03*
X26238D02*
D03*
Y13165D02*
D03*
X56261Y10063D02*
D03*
Y8488D02*
D03*
X83000Y17212D02*
D03*
Y21788D02*
D03*
Y11337D02*
D03*
Y6662D02*
D03*
D17*
X56269Y5326D02*
D03*
Y6876D02*
D03*
D18*
X14452Y-127D02*
D03*
X7748D02*
D03*
X27172D02*
D03*
X20468D02*
D03*
D19*
X64669Y15239D02*
D03*
Y15739D02*
D03*
Y16239D02*
D03*
Y16739D02*
D03*
Y17239D02*
D03*
Y17739D02*
D03*
Y18239D02*
D03*
Y18739D02*
D03*
Y19239D02*
D03*
Y19739D02*
D03*
Y20239D02*
D03*
X48869Y15239D02*
D03*
Y15739D02*
D03*
Y16239D02*
D03*
Y16739D02*
D03*
Y17239D02*
D03*
Y17739D02*
D03*
Y18239D02*
D03*
Y18739D02*
D03*
Y19239D02*
D03*
Y19739D02*
D03*
Y20239D02*
D03*
X64669Y21239D02*
D03*
Y21739D02*
D03*
Y22239D02*
D03*
Y22739D02*
D03*
Y23239D02*
D03*
Y23739D02*
D03*
Y24239D02*
D03*
Y24739D02*
D03*
Y25239D02*
D03*
Y25739D02*
D03*
Y26239D02*
D03*
X48869Y21239D02*
D03*
Y21739D02*
D03*
Y22239D02*
D03*
Y22739D02*
D03*
Y23239D02*
D03*
Y23739D02*
D03*
Y24239D02*
D03*
Y24739D02*
D03*
Y25239D02*
D03*
Y25739D02*
D03*
Y26239D02*
D03*
X64669Y20739D02*
D03*
X48869D02*
D03*
D20*
X64669Y14689D02*
D03*
X48869D02*
D03*
X64669Y26789D02*
D03*
X48869D02*
D03*
D21*
X62269Y12839D02*
D03*
X61769D02*
D03*
X61269D02*
D03*
X60769D02*
D03*
X60269D02*
D03*
X59769D02*
D03*
X59269D02*
D03*
X58769D02*
D03*
X58269D02*
D03*
X57769D02*
D03*
X57269D02*
D03*
X56269D02*
D03*
X55769D02*
D03*
X55269D02*
D03*
X54769D02*
D03*
X54269D02*
D03*
X53769D02*
D03*
X53269D02*
D03*
X52769D02*
D03*
X52269D02*
D03*
X51769D02*
D03*
X51269D02*
D03*
X62269Y28639D02*
D03*
X61769D02*
D03*
X61269D02*
D03*
X60769D02*
D03*
X60269D02*
D03*
X59769D02*
D03*
X59269D02*
D03*
X58769D02*
D03*
X58269D02*
D03*
X57769D02*
D03*
X57269D02*
D03*
X56269D02*
D03*
X55769D02*
D03*
X55269D02*
D03*
X54769D02*
D03*
X54269D02*
D03*
X53769D02*
D03*
X53269D02*
D03*
X52769D02*
D03*
X52269D02*
D03*
X51769D02*
D03*
X51269D02*
D03*
X56769Y12839D02*
D03*
Y28639D02*
D03*
D22*
X62819Y12839D02*
D03*
X50719D02*
D03*
X62819Y28639D02*
D03*
X50719D02*
D03*
D23*
X18764Y25781D02*
D03*
D24*
X15335Y14605D02*
D03*
X17035D02*
D03*
X18735D02*
D03*
X20435D02*
D03*
X22135D02*
D03*
D25*
X19530Y9081D02*
D03*
Y4381D02*
D03*
D26*
X43475Y10804D02*
D03*
Y8904D02*
D03*
X54229Y9967D02*
D03*
Y8067D02*
D03*
D27*
X61951Y7239D02*
D03*
X63526D02*
D03*
X65380D02*
D03*
X66954D02*
D03*
X78787Y13500D02*
D03*
X77213D02*
D03*
X78787Y24000D02*
D03*
X77213D02*
D03*
D28*
X73250Y7080D02*
D03*
Y8350D02*
D03*
Y10890D02*
D03*
Y9620D02*
D03*
X78750Y7080D02*
D03*
Y8350D02*
D03*
Y10890D02*
D03*
Y9620D02*
D03*
X78760Y20120D02*
D03*
Y21390D02*
D03*
Y18850D02*
D03*
Y17580D02*
D03*
X73260Y20120D02*
D03*
Y21390D02*
D03*
Y18850D02*
D03*
Y17580D02*
D03*
D29*
X60143Y2794D02*
D03*
X69143D02*
D03*
D30*
X25760Y9337D02*
D03*
Y4379D02*
D03*
D31*
X73475Y-1000D02*
D03*
X71575D02*
D03*
D32*
X48325Y600D02*
D03*
Y-1400D02*
D03*
Y4600D02*
D03*
X50325Y600D02*
D03*
Y-1400D02*
D03*
Y6600D02*
D03*
Y4600D02*
D03*
X48325Y2600D02*
D03*
X50325D02*
D03*
D33*
X48325Y6600D02*
D03*
D34*
X92000Y7750D02*
D03*
Y10250D02*
D03*
Y18250D02*
D03*
Y20750D02*
D03*
D35*
X5217Y15750D02*
D03*
Y12750D02*
D03*
X8217Y15750D02*
D03*
Y12750D02*
D03*
D36*
X917Y14250D02*
D03*
D37*
X44000Y13304D02*
D03*
X1201Y6000D02*
D03*
X31623Y-1905D02*
D03*
X-1794Y6000D02*
D03*
X36195Y-1905D02*
D03*
D38*
X91000Y0D02*
D03*
X0D02*
D03*
Y28500D02*
D03*
X91000D02*
D03*
M02*
