G04*
G04 #@! TF.GenerationSoftware,Altium Limited,Altium Designer,19.0.5 (141)*
G04*
G04 Layer_Color=32896*
%FSLAX43Y43*%
%MOMM*%
G71*
G01*
G75*
%ADD11C,0.150*%
%ADD12C,0.200*%
G36*
X33493Y1050D02*
X33506Y1044D01*
X33515Y1035D01*
X33521Y1026D01*
X33524Y1015D01*
X33528Y1007D01*
Y1000D01*
Y998D01*
X33526Y981D01*
X33521Y968D01*
X33511Y959D01*
X33502Y954D01*
X33493Y950D01*
X33484Y946D01*
X33267D01*
X33243Y944D01*
X33221Y939D01*
X33202Y931D01*
X33185Y924D01*
X33172Y915D01*
X33161Y907D01*
X33156Y902D01*
X33154Y900D01*
X33139Y881D01*
X33128Y863D01*
X33119Y844D01*
X33113Y828D01*
X33110Y811D01*
X33108Y800D01*
Y793D01*
Y789D01*
X33110Y765D01*
X33115Y743D01*
X33122Y724D01*
X33130Y707D01*
X33139Y694D01*
X33147Y685D01*
X33152Y678D01*
X33154Y676D01*
X33172Y661D01*
X33191Y650D01*
X33210Y643D01*
X33228Y637D01*
X33243Y633D01*
X33256Y631D01*
X33372D01*
X33389Y630D01*
X33402Y624D01*
X33411Y615D01*
X33417Y605D01*
X33421Y594D01*
X33424Y587D01*
Y580D01*
Y578D01*
X33422Y561D01*
X33417Y548D01*
X33408Y539D01*
X33398Y533D01*
X33389Y530D01*
X33380Y526D01*
X33267D01*
X33243Y524D01*
X33222Y518D01*
X33204Y511D01*
X33187Y504D01*
X33174Y494D01*
X33163Y487D01*
X33158Y481D01*
X33156Y480D01*
X33139Y461D01*
X33128Y443D01*
X33119Y424D01*
X33113Y406D01*
X33110Y391D01*
X33108Y378D01*
Y370D01*
Y367D01*
Y263D01*
X33110Y239D01*
X33115Y217D01*
X33122Y198D01*
X33130Y181D01*
X33139Y169D01*
X33147Y159D01*
X33152Y152D01*
X33154Y150D01*
X33172Y135D01*
X33191Y124D01*
X33210Y117D01*
X33228Y111D01*
X33243Y107D01*
X33256Y106D01*
X33476D01*
X33493Y104D01*
X33506Y98D01*
X33515Y89D01*
X33521Y80D01*
X33524Y69D01*
X33528Y61D01*
Y54D01*
Y52D01*
X33526Y35D01*
X33521Y22D01*
X33511Y13D01*
X33502Y7D01*
X33493Y4D01*
X33484Y0D01*
X33265D01*
X33226Y4D01*
X33191Y11D01*
X33160Y24D01*
X33132Y39D01*
X33110Y52D01*
X33093Y65D01*
X33084Y72D01*
X33080Y76D01*
X33054Y106D01*
X33035Y139D01*
X33021Y169D01*
X33011Y198D01*
X33006Y224D01*
X33004Y244D01*
X33002Y252D01*
Y257D01*
Y261D01*
Y263D01*
Y367D01*
X33004Y391D01*
X33006Y413D01*
X33011Y435D01*
X33019Y456D01*
X33035Y491D01*
X33054Y522D01*
X33074Y546D01*
X33091Y563D01*
X33098Y570D01*
X33104Y574D01*
X33106Y578D01*
X33108D01*
X33089Y593D01*
X33072Y609D01*
X33060Y628D01*
X33047Y644D01*
X33035Y663D01*
X33028Y680D01*
X33015Y713D01*
X33008Y743D01*
X33006Y755D01*
X33004Y767D01*
X33002Y776D01*
Y783D01*
Y787D01*
Y789D01*
X33006Y828D01*
X33015Y863D01*
X33026Y894D01*
X33041Y922D01*
X33056Y944D01*
X33067Y961D01*
X33076Y970D01*
X33080Y974D01*
X33110Y1000D01*
X33141Y1018D01*
X33172Y1033D01*
X33202Y1042D01*
X33226Y1048D01*
X33247Y1050D01*
X33254Y1052D01*
X33476D01*
X33493Y1050D01*
D02*
G37*
G36*
X32756Y156D02*
X32769Y150D01*
X32778Y141D01*
X32784Y131D01*
X32787Y120D01*
X32791Y113D01*
Y106D01*
Y104D01*
Y52D01*
X32789Y35D01*
X32784Y22D01*
X32774Y13D01*
X32765Y7D01*
X32756Y4D01*
X32747Y0D01*
X32739D01*
X32721Y2D01*
X32708Y7D01*
X32698Y17D01*
X32693Y26D01*
X32687Y35D01*
X32685Y44D01*
Y50D01*
Y52D01*
Y104D01*
X32687Y122D01*
X32693Y135D01*
X32702Y144D01*
X32711Y150D01*
X32723Y156D01*
X32730Y157D01*
X32739D01*
X32756Y156D01*
D02*
G37*
G36*
X32439Y1050D02*
X32452Y1044D01*
X32461Y1035D01*
X32467Y1026D01*
X32471Y1015D01*
X32474Y1007D01*
Y1000D01*
Y998D01*
X32473Y981D01*
X32467Y968D01*
X32458Y959D01*
X32448Y954D01*
X32439Y950D01*
X32430Y946D01*
X32213D01*
X32189Y944D01*
X32167Y939D01*
X32149Y931D01*
X32132Y924D01*
X32119Y915D01*
X32108Y907D01*
X32102Y902D01*
X32100Y900D01*
X32086Y881D01*
X32074Y863D01*
X32065Y844D01*
X32060Y828D01*
X32056Y811D01*
X32054Y800D01*
Y793D01*
Y789D01*
X32056Y765D01*
X32061Y743D01*
X32069Y724D01*
X32076Y707D01*
X32086Y694D01*
X32093Y685D01*
X32099Y678D01*
X32100Y676D01*
X32119Y661D01*
X32137Y650D01*
X32156Y643D01*
X32174Y637D01*
X32189Y633D01*
X32202Y631D01*
X32319D01*
X32336Y630D01*
X32348Y624D01*
X32358Y615D01*
X32363Y605D01*
X32367Y594D01*
X32371Y587D01*
Y580D01*
Y578D01*
X32369Y561D01*
X32363Y548D01*
X32354Y539D01*
X32345Y533D01*
X32336Y530D01*
X32326Y526D01*
X32213D01*
X32189Y524D01*
X32169Y518D01*
X32150Y511D01*
X32134Y504D01*
X32121Y494D01*
X32110Y487D01*
X32104Y481D01*
X32102Y480D01*
X32086Y461D01*
X32074Y443D01*
X32065Y424D01*
X32060Y406D01*
X32056Y391D01*
X32054Y378D01*
Y370D01*
Y367D01*
Y263D01*
X32056Y239D01*
X32061Y217D01*
X32069Y198D01*
X32076Y181D01*
X32086Y169D01*
X32093Y159D01*
X32099Y152D01*
X32100Y150D01*
X32119Y135D01*
X32137Y124D01*
X32156Y117D01*
X32174Y111D01*
X32189Y107D01*
X32202Y106D01*
X32423D01*
X32439Y104D01*
X32452Y98D01*
X32461Y89D01*
X32467Y80D01*
X32471Y69D01*
X32474Y61D01*
Y54D01*
Y52D01*
X32473Y35D01*
X32467Y22D01*
X32458Y13D01*
X32448Y7D01*
X32439Y4D01*
X32430Y0D01*
X32211D01*
X32173Y4D01*
X32137Y11D01*
X32106Y24D01*
X32078Y39D01*
X32056Y52D01*
X32039Y65D01*
X32030Y72D01*
X32026Y76D01*
X32000Y106D01*
X31982Y139D01*
X31967Y169D01*
X31958Y198D01*
X31952Y224D01*
X31950Y244D01*
X31949Y252D01*
Y257D01*
Y261D01*
Y263D01*
Y367D01*
X31950Y391D01*
X31952Y413D01*
X31958Y435D01*
X31965Y456D01*
X31982Y491D01*
X32000Y522D01*
X32021Y546D01*
X32037Y563D01*
X32045Y570D01*
X32050Y574D01*
X32052Y578D01*
X32054D01*
X32036Y593D01*
X32019Y609D01*
X32006Y628D01*
X31993Y644D01*
X31982Y663D01*
X31974Y680D01*
X31962Y713D01*
X31954Y743D01*
X31952Y755D01*
X31950Y767D01*
X31949Y776D01*
Y783D01*
Y787D01*
Y789D01*
X31952Y828D01*
X31962Y863D01*
X31973Y894D01*
X31987Y922D01*
X32002Y944D01*
X32013Y961D01*
X32023Y970D01*
X32026Y974D01*
X32056Y1000D01*
X32087Y1018D01*
X32119Y1033D01*
X32149Y1042D01*
X32173Y1048D01*
X32193Y1050D01*
X32200Y1052D01*
X32423D01*
X32439Y1050D01*
D02*
G37*
G36*
X31702D02*
X31715Y1044D01*
X31724Y1035D01*
X31730Y1026D01*
X31734Y1015D01*
X31737Y1007D01*
Y1000D01*
Y998D01*
Y52D01*
X31736Y35D01*
X31730Y22D01*
X31721Y13D01*
X31712Y7D01*
X31702Y4D01*
X31693Y0D01*
X31423D01*
X31399Y2D01*
X31375Y4D01*
X31332Y15D01*
X31293Y30D01*
X31262Y46D01*
X31236Y63D01*
X31225Y70D01*
X31215Y76D01*
X31208Y83D01*
X31202Y87D01*
X31200Y89D01*
X31199Y91D01*
X31182Y109D01*
X31167Y128D01*
X31156Y146D01*
X31145Y165D01*
X31128Y202D01*
X31117Y237D01*
X31112Y268D01*
X31108Y281D01*
Y293D01*
X31106Y302D01*
Y309D01*
Y313D01*
Y315D01*
X31108Y348D01*
X31112Y378D01*
X31119Y406D01*
X31130Y433D01*
X31141Y457D01*
X31154Y480D01*
X31167Y498D01*
X31180Y517D01*
X31195Y531D01*
X31208Y546D01*
X31221Y557D01*
X31232Y567D01*
X31241Y574D01*
X31249Y580D01*
X31254Y581D01*
X31256Y583D01*
X31239Y598D01*
X31223Y615D01*
X31210Y631D01*
X31199Y650D01*
X31182Y683D01*
X31171Y717D01*
X31163Y744D01*
X31162Y757D01*
X31160Y768D01*
X31158Y776D01*
Y783D01*
Y787D01*
Y789D01*
X31162Y828D01*
X31171Y865D01*
X31182Y896D01*
X31197Y922D01*
X31212Y944D01*
X31223Y961D01*
X31232Y970D01*
X31236Y974D01*
X31265Y1000D01*
X31297Y1018D01*
X31328Y1033D01*
X31358Y1042D01*
X31384Y1048D01*
X31404Y1050D01*
X31412Y1052D01*
X31686D01*
X31702Y1050D01*
D02*
G37*
G36*
X-608Y9275D02*
X-595Y9269D01*
X-585Y9260D01*
X-580Y9251D01*
X-576Y9240D01*
X-573Y9232D01*
Y9225D01*
Y9223D01*
Y8277D01*
X-574Y8260D01*
X-580Y8247D01*
X-589Y8238D01*
X-598Y8232D01*
X-608Y8229D01*
X-617Y8225D01*
X-624D01*
X-643Y8227D01*
X-656Y8232D01*
X-665Y8242D01*
X-671Y8251D01*
X-676Y8260D01*
X-678Y8269D01*
Y8275D01*
Y8277D01*
Y9021D01*
X-1104Y8251D01*
X-1109Y8242D01*
X-1117Y8236D01*
X-1134Y8229D01*
X-1145Y8225D01*
X-1150D01*
X-1169Y8227D01*
X-1182Y8232D01*
X-1191Y8242D01*
X-1197Y8251D01*
X-1202Y8260D01*
X-1204Y8269D01*
Y8275D01*
Y8277D01*
Y9223D01*
X-1202Y9242D01*
X-1197Y9255D01*
X-1187Y9264D01*
X-1178Y9269D01*
X-1167Y9275D01*
X-1159Y9277D01*
X-1150D01*
X-1134Y9275D01*
X-1121Y9269D01*
X-1111Y9260D01*
X-1106Y9251D01*
X-1102Y9240D01*
X-1098Y9232D01*
Y9225D01*
Y9223D01*
Y8481D01*
X-673Y9245D01*
X-665Y9256D01*
X-658Y9264D01*
X-650Y9269D01*
X-643Y9273D01*
X-635Y9275D01*
X-630Y9277D01*
X-624D01*
X-608Y9275D01*
D02*
G37*
G36*
X46Y9273D02*
X83Y9264D01*
X114Y9253D01*
X142Y9238D01*
X164Y9223D01*
X179Y9212D01*
X190Y9203D01*
X194Y9199D01*
X220Y9169D01*
X239Y9138D01*
X251Y9106D01*
X261Y9077D01*
X266Y9053D01*
X268Y9032D01*
X270Y9025D01*
Y9019D01*
Y9016D01*
Y9014D01*
Y8488D01*
X266Y8449D01*
X259Y8412D01*
X246Y8381D01*
X231Y8353D01*
X218Y8331D01*
X205Y8316D01*
X198Y8305D01*
X194Y8301D01*
X164Y8275D01*
X131Y8256D01*
X101Y8244D01*
X72Y8234D01*
X46Y8229D01*
X26Y8227D01*
X18Y8225D01*
X-308D01*
X-326Y8227D01*
X-339Y8232D01*
X-348Y8242D01*
X-354Y8251D01*
X-360Y8260D01*
X-361Y8269D01*
Y8275D01*
Y8277D01*
Y8803D01*
X-360Y8821D01*
X-354Y8834D01*
X-345Y8843D01*
X-335Y8849D01*
X-324Y8855D01*
X-317Y8856D01*
X-150D01*
X-134Y8855D01*
X-121Y8849D01*
X-111Y8840D01*
X-106Y8830D01*
X-102Y8819D01*
X-98Y8812D01*
Y8805D01*
Y8803D01*
X-100Y8786D01*
X-106Y8773D01*
X-115Y8764D01*
X-124Y8758D01*
X-134Y8755D01*
X-143Y8751D01*
X-256D01*
Y8331D01*
X7D01*
X31Y8332D01*
X53Y8338D01*
X72Y8345D01*
X89Y8353D01*
X101Y8360D01*
X111Y8368D01*
X118Y8373D01*
X120Y8375D01*
X135Y8394D01*
X146Y8412D01*
X153Y8431D01*
X159Y8449D01*
X163Y8464D01*
X164Y8477D01*
Y8484D01*
Y8488D01*
Y9012D01*
X163Y9036D01*
X157Y9058D01*
X150Y9077D01*
X142Y9093D01*
X135Y9106D01*
X127Y9118D01*
X122Y9123D01*
X120Y9125D01*
X101Y9140D01*
X83Y9151D01*
X64Y9160D01*
X46Y9166D01*
X31Y9169D01*
X18Y9171D01*
X-308D01*
X-326Y9173D01*
X-339Y9179D01*
X-348Y9188D01*
X-354Y9197D01*
X-360Y9206D01*
X-361Y9216D01*
Y9221D01*
Y9223D01*
X-360Y9242D01*
X-354Y9255D01*
X-345Y9264D01*
X-335Y9269D01*
X-324Y9275D01*
X-317Y9277D01*
X7D01*
X46Y9273D01*
D02*
G37*
G36*
X-1450Y9275D02*
X-1437Y9269D01*
X-1428Y9260D01*
X-1422Y9251D01*
X-1419Y9240D01*
X-1415Y9232D01*
Y9225D01*
Y9223D01*
Y8277D01*
X-1417Y8260D01*
X-1422Y8247D01*
X-1432Y8238D01*
X-1441Y8232D01*
X-1450Y8229D01*
X-1459Y8225D01*
X-1782D01*
X-1821Y8229D01*
X-1858Y8236D01*
X-1889Y8249D01*
X-1917Y8264D01*
X-1939Y8277D01*
X-1956Y8290D01*
X-1965Y8297D01*
X-1969Y8301D01*
X-1995Y8331D01*
X-2013Y8364D01*
X-2028Y8394D01*
X-2037Y8423D01*
X-2043Y8449D01*
X-2045Y8469D01*
X-2046Y8477D01*
Y8482D01*
Y8486D01*
Y8488D01*
Y9014D01*
X-2043Y9053D01*
X-2033Y9090D01*
X-2022Y9121D01*
X-2008Y9147D01*
X-1993Y9169D01*
X-1982Y9186D01*
X-1972Y9195D01*
X-1969Y9199D01*
X-1939Y9225D01*
X-1908Y9243D01*
X-1876Y9258D01*
X-1846Y9267D01*
X-1821Y9273D01*
X-1800Y9275D01*
X-1793Y9277D01*
X-1467D01*
X-1450Y9275D01*
D02*
G37*
G36*
X2720D02*
X2733Y9269D01*
X2742Y9260D01*
X2748Y9251D01*
X2752Y9240D01*
X2755Y9232D01*
Y9225D01*
Y9223D01*
Y8277D01*
X2753Y8260D01*
X2748Y8247D01*
X2739Y8238D01*
X2729Y8232D01*
X2720Y8229D01*
X2711Y8225D01*
X2703D01*
X2685Y8227D01*
X2672Y8232D01*
X2663Y8242D01*
X2657Y8251D01*
X2652Y8260D01*
X2650Y8269D01*
Y8275D01*
Y8277D01*
Y9021D01*
X2224Y8251D01*
X2218Y8242D01*
X2211Y8236D01*
X2194Y8229D01*
X2183Y8225D01*
X2178D01*
X2159Y8227D01*
X2146Y8232D01*
X2137Y8242D01*
X2131Y8251D01*
X2126Y8260D01*
X2124Y8269D01*
Y8275D01*
Y8277D01*
Y9223D01*
X2126Y9242D01*
X2131Y9255D01*
X2141Y9264D01*
X2150Y9269D01*
X2161Y9275D01*
X2168Y9277D01*
X2178D01*
X2194Y9275D01*
X2207Y9269D01*
X2216Y9260D01*
X2222Y9251D01*
X2226Y9240D01*
X2229Y9232D01*
Y9225D01*
Y9223D01*
Y8481D01*
X2655Y9245D01*
X2663Y9256D01*
X2670Y9264D01*
X2678Y9269D01*
X2685Y9273D01*
X2692Y9275D01*
X2698Y9277D01*
X2703D01*
X2720Y9275D01*
D02*
G37*
G36*
X3985D02*
X3998Y9269D01*
X4007Y9260D01*
X4013Y9251D01*
X4016Y9240D01*
X4020Y9232D01*
Y9225D01*
Y9223D01*
X4018Y9212D01*
Y9210D01*
Y9208D01*
X3705Y8264D01*
X3698Y8251D01*
X3690Y8242D01*
X3683Y8234D01*
X3674Y8231D01*
X3666Y8227D01*
X3659Y8225D01*
X3653D01*
X3640Y8227D01*
X3629Y8231D01*
X3620Y8238D01*
X3613Y8245D01*
X3603Y8258D01*
X3602Y8262D01*
Y8264D01*
X3287Y9208D01*
X3285Y9217D01*
Y9221D01*
Y9223D01*
X3287Y9242D01*
X3292Y9255D01*
X3302Y9264D01*
X3311Y9269D01*
X3320Y9275D01*
X3329Y9277D01*
X3337D01*
X3350Y9275D01*
X3361Y9271D01*
X3368Y9266D01*
X3376Y9260D01*
X3385Y9247D01*
X3387Y9243D01*
Y9242D01*
X3653Y8443D01*
X3918Y9242D01*
X3924Y9253D01*
X3931Y9262D01*
X3940Y9267D01*
X3948Y9273D01*
X3955Y9275D01*
X3963Y9277D01*
X3968D01*
X3985Y9275D01*
D02*
G37*
G36*
X3037D02*
X3050Y9269D01*
X3059Y9260D01*
X3065Y9251D01*
X3068Y9240D01*
X3072Y9232D01*
Y9225D01*
Y9223D01*
Y8277D01*
X3070Y8260D01*
X3065Y8247D01*
X3055Y8238D01*
X3046Y8232D01*
X3037Y8229D01*
X3028Y8225D01*
X3020D01*
X3002Y8227D01*
X2989Y8232D01*
X2979Y8242D01*
X2974Y8251D01*
X2968Y8260D01*
X2966Y8269D01*
Y8275D01*
Y8277D01*
Y9223D01*
X2968Y9242D01*
X2974Y9255D01*
X2983Y9264D01*
X2992Y9269D01*
X3003Y9275D01*
X3011Y9277D01*
X3020D01*
X3037Y9275D01*
D02*
G37*
G36*
X36968Y1050D02*
X36981Y1044D01*
X36991Y1035D01*
X36996Y1026D01*
X37000Y1015D01*
X37003Y1007D01*
Y1000D01*
Y998D01*
Y52D01*
X37002Y35D01*
X36996Y22D01*
X36987Y13D01*
X36978Y7D01*
X36968Y4D01*
X36959Y0D01*
X36952D01*
X36933Y2D01*
X36920Y7D01*
X36911Y17D01*
X36905Y26D01*
X36900Y35D01*
X36898Y44D01*
Y50D01*
Y52D01*
Y796D01*
X36472Y26D01*
X36467Y17D01*
X36459Y11D01*
X36442Y4D01*
X36431Y0D01*
X36426D01*
X36407Y2D01*
X36394Y7D01*
X36385Y17D01*
X36379Y26D01*
X36374Y35D01*
X36372Y44D01*
Y50D01*
Y52D01*
Y998D01*
X36374Y1017D01*
X36379Y1030D01*
X36389Y1039D01*
X36398Y1044D01*
X36409Y1050D01*
X36417Y1052D01*
X36426D01*
X36442Y1050D01*
X36455Y1044D01*
X36465Y1035D01*
X36470Y1026D01*
X36474Y1015D01*
X36478Y1007D01*
Y1000D01*
Y998D01*
Y256D01*
X36904Y1020D01*
X36911Y1031D01*
X36918Y1039D01*
X36926Y1044D01*
X36933Y1048D01*
X36941Y1050D01*
X36946Y1052D01*
X36952D01*
X36968Y1050D01*
D02*
G37*
G36*
X37622Y1048D02*
X37659Y1039D01*
X37690Y1028D01*
X37718Y1013D01*
X37740Y998D01*
X37755Y987D01*
X37766Y978D01*
X37770Y974D01*
X37796Y944D01*
X37815Y913D01*
X37827Y881D01*
X37837Y852D01*
X37842Y828D01*
X37844Y807D01*
X37846Y800D01*
Y794D01*
Y791D01*
Y789D01*
Y263D01*
X37842Y224D01*
X37835Y187D01*
X37822Y156D01*
X37807Y128D01*
X37794Y106D01*
X37781Y91D01*
X37774Y80D01*
X37770Y76D01*
X37740Y50D01*
X37707Y31D01*
X37678Y19D01*
X37648Y9D01*
X37622Y4D01*
X37602Y2D01*
X37594Y0D01*
X37268D01*
X37250Y2D01*
X37237Y7D01*
X37228Y17D01*
X37222Y26D01*
X37216Y35D01*
X37215Y44D01*
Y50D01*
Y52D01*
Y578D01*
X37216Y596D01*
X37222Y609D01*
X37231Y618D01*
X37241Y624D01*
X37252Y630D01*
X37259Y631D01*
X37426D01*
X37442Y630D01*
X37455Y624D01*
X37465Y615D01*
X37470Y605D01*
X37474Y594D01*
X37478Y587D01*
Y580D01*
Y578D01*
X37476Y561D01*
X37470Y548D01*
X37461Y539D01*
X37452Y533D01*
X37442Y530D01*
X37433Y526D01*
X37320D01*
Y106D01*
X37583D01*
X37607Y107D01*
X37629Y113D01*
X37648Y120D01*
X37665Y128D01*
X37678Y135D01*
X37687Y143D01*
X37694Y148D01*
X37696Y150D01*
X37711Y169D01*
X37722Y187D01*
X37729Y206D01*
X37735Y224D01*
X37739Y239D01*
X37740Y252D01*
Y259D01*
Y263D01*
Y787D01*
X37739Y811D01*
X37733Y833D01*
X37726Y852D01*
X37718Y868D01*
X37711Y881D01*
X37703Y892D01*
X37698Y898D01*
X37696Y900D01*
X37678Y915D01*
X37659Y926D01*
X37640Y935D01*
X37622Y941D01*
X37607Y944D01*
X37594Y946D01*
X37268D01*
X37250Y948D01*
X37237Y954D01*
X37228Y963D01*
X37222Y972D01*
X37216Y981D01*
X37215Y991D01*
Y996D01*
Y998D01*
X37216Y1017D01*
X37222Y1030D01*
X37231Y1039D01*
X37241Y1044D01*
X37252Y1050D01*
X37259Y1052D01*
X37583D01*
X37622Y1048D01*
D02*
G37*
G36*
X36126Y1050D02*
X36139Y1044D01*
X36148Y1035D01*
X36154Y1026D01*
X36157Y1015D01*
X36161Y1007D01*
Y1000D01*
Y998D01*
Y52D01*
X36159Y35D01*
X36154Y22D01*
X36144Y13D01*
X36135Y7D01*
X36126Y4D01*
X36117Y0D01*
X35794D01*
X35755Y4D01*
X35718Y11D01*
X35687Y24D01*
X35659Y39D01*
X35637Y52D01*
X35620Y65D01*
X35611Y72D01*
X35607Y76D01*
X35581Y106D01*
X35563Y139D01*
X35548Y169D01*
X35539Y198D01*
X35533Y224D01*
X35531Y244D01*
X35530Y252D01*
Y257D01*
Y261D01*
Y263D01*
Y789D01*
X35533Y828D01*
X35543Y865D01*
X35554Y896D01*
X35568Y922D01*
X35583Y944D01*
X35594Y961D01*
X35604Y970D01*
X35607Y974D01*
X35637Y1000D01*
X35668Y1018D01*
X35700Y1033D01*
X35730Y1042D01*
X35755Y1048D01*
X35776Y1050D01*
X35783Y1052D01*
X36109D01*
X36126Y1050D01*
D02*
G37*
G36*
X45584Y5017D02*
X45597Y5011D01*
X45607Y5004D01*
X45608Y5002D01*
X45610Y5000D01*
X45816Y4794D01*
X45825Y4781D01*
X45829Y4770D01*
X45831Y4761D01*
Y4759D01*
Y4757D01*
X45829Y4739D01*
X45823Y4726D01*
X45814Y4717D01*
X45805Y4711D01*
X45795Y4707D01*
X45786Y4704D01*
X45779D01*
X45764Y4705D01*
X45751Y4711D01*
X45744Y4717D01*
X45742Y4718D01*
X45619Y4841D01*
Y4020D01*
X45618Y4004D01*
X45612Y3991D01*
X45603Y3981D01*
X45594Y3976D01*
X45584Y3972D01*
X45575Y3968D01*
X45568D01*
X45549Y3970D01*
X45536Y3976D01*
X45527Y3985D01*
X45521Y3994D01*
X45516Y4004D01*
X45514Y4013D01*
Y4018D01*
Y4020D01*
Y4967D01*
X45516Y4985D01*
X45521Y4998D01*
X45531Y5007D01*
X45540Y5013D01*
X45551Y5018D01*
X45558Y5020D01*
X45575D01*
X45584Y5017D01*
D02*
G37*
G36*
X46638Y5018D02*
X46651Y5013D01*
X46660Y5004D01*
X46666Y4994D01*
X46669Y4983D01*
X46673Y4976D01*
Y4968D01*
Y4967D01*
Y4020D01*
X46671Y4004D01*
X46666Y3991D01*
X46656Y3981D01*
X46647Y3976D01*
X46638Y3972D01*
X46629Y3968D01*
X46621D01*
X46603Y3970D01*
X46590Y3976D01*
X46581Y3985D01*
X46575Y3994D01*
X46569Y4004D01*
X46568Y4013D01*
Y4018D01*
Y4020D01*
Y4389D01*
X46338D01*
X46144Y3996D01*
X46138Y3987D01*
X46131Y3980D01*
X46121Y3976D01*
X46114Y3972D01*
X46106Y3970D01*
X46101Y3968D01*
X46095D01*
X46081Y3970D01*
X46069Y3976D01*
X46062Y3981D01*
X46058Y3983D01*
X46049Y3996D01*
X46044Y4007D01*
X46042Y4017D01*
Y4020D01*
X46044Y4030D01*
X46045Y4037D01*
X46047Y4043D01*
X46049Y4044D01*
X46232Y4411D01*
X46199Y4428D01*
X46169Y4446D01*
X46144Y4467D01*
X46121Y4489D01*
X46103Y4513D01*
X46088Y4537D01*
X46075Y4561D01*
X46066Y4585D01*
X46058Y4609D01*
X46051Y4631D01*
X46047Y4652D01*
X46045Y4668D01*
X46044Y4683D01*
X46042Y4694D01*
Y4702D01*
Y4704D01*
X46044Y4728D01*
X46045Y4752D01*
X46056Y4794D01*
X46071Y4833D01*
X46088Y4865D01*
X46105Y4891D01*
X46112Y4902D01*
X46119Y4911D01*
X46125Y4918D01*
X46131Y4924D01*
X46132Y4926D01*
X46134Y4928D01*
X46153Y4944D01*
X46171Y4959D01*
X46190Y4970D01*
X46208Y4981D01*
X46245Y4998D01*
X46281Y5009D01*
X46312Y5015D01*
X46325Y5018D01*
X46336D01*
X46345Y5020D01*
X46621D01*
X46638Y5018D01*
D02*
G37*
G36*
X45070D02*
X45094Y5011D01*
X45118Y5002D01*
X45140Y4989D01*
X45158Y4974D01*
X45177Y4957D01*
X45207Y4920D01*
X45231Y4883D01*
X45240Y4867D01*
X45247Y4852D01*
X45253Y4839D01*
X45257Y4830D01*
X45260Y4822D01*
Y4820D01*
X45275Y4767D01*
X45286Y4711D01*
X45294Y4655D01*
X45299Y4605D01*
X45301Y4581D01*
X45303Y4561D01*
Y4543D01*
X45305Y4526D01*
Y4513D01*
Y4504D01*
Y4496D01*
Y4494D01*
X45303Y4426D01*
X45297Y4365D01*
X45294Y4335D01*
X45290Y4309D01*
X45286Y4283D01*
X45283Y4261D01*
X45279Y4241D01*
X45275Y4222D01*
X45271Y4206D01*
X45268Y4193D01*
X45264Y4183D01*
X45262Y4174D01*
X45260Y4170D01*
Y4168D01*
X45247Y4133D01*
X45231Y4102D01*
X45214Y4076D01*
X45197Y4054D01*
X45179Y4033D01*
X45160Y4017D01*
X45144Y4004D01*
X45125Y3994D01*
X45108Y3985D01*
X45094Y3980D01*
X45079Y3974D01*
X45066Y3972D01*
X45057Y3970D01*
X45049Y3968D01*
X45042D01*
X45014Y3970D01*
X44990Y3978D01*
X44966Y3987D01*
X44945Y4000D01*
X44925Y4015D01*
X44908Y4031D01*
X44877Y4068D01*
X44855Y4106D01*
X44846Y4122D01*
X44838Y4137D01*
X44833Y4150D01*
X44829Y4159D01*
X44825Y4167D01*
Y4168D01*
X44810Y4222D01*
X44799Y4278D01*
X44790Y4331D01*
X44784Y4383D01*
X44783Y4405D01*
X44781Y4428D01*
Y4446D01*
X44779Y4463D01*
Y4476D01*
Y4487D01*
Y4493D01*
Y4494D01*
X44781Y4563D01*
X44786Y4624D01*
X44790Y4652D01*
X44794Y4680D01*
X44797Y4704D01*
X44801Y4726D01*
X44807Y4746D01*
X44810Y4765D01*
X44814Y4781D01*
X44818Y4794D01*
X44821Y4805D01*
X44823Y4813D01*
X44825Y4817D01*
Y4818D01*
X44838Y4854D01*
X44855Y4885D01*
X44871Y4913D01*
X44888Y4935D01*
X44907Y4955D01*
X44923Y4970D01*
X44942Y4985D01*
X44958Y4994D01*
X44975Y5004D01*
X44992Y5009D01*
X45005Y5015D01*
X45018Y5017D01*
X45027Y5018D01*
X45034Y5020D01*
X45042D01*
X45070Y5018D01*
D02*
G37*
G36*
X53638D02*
X53651Y5013D01*
X53660Y5004D01*
X53666Y4994D01*
X53669Y4983D01*
X53673Y4976D01*
Y4968D01*
Y4967D01*
Y4020D01*
X53671Y4004D01*
X53666Y3991D01*
X53656Y3981D01*
X53647Y3976D01*
X53638Y3972D01*
X53629Y3968D01*
X53621D01*
X53603Y3970D01*
X53590Y3976D01*
X53581Y3985D01*
X53575Y3994D01*
X53569Y4004D01*
X53568Y4013D01*
Y4018D01*
Y4020D01*
Y4389D01*
X53338D01*
X53144Y3996D01*
X53138Y3987D01*
X53131Y3980D01*
X53121Y3976D01*
X53114Y3972D01*
X53106Y3970D01*
X53101Y3968D01*
X53095D01*
X53081Y3970D01*
X53069Y3976D01*
X53062Y3981D01*
X53058Y3983D01*
X53049Y3996D01*
X53044Y4007D01*
X53042Y4017D01*
Y4020D01*
X53044Y4030D01*
X53045Y4037D01*
X53047Y4043D01*
X53049Y4044D01*
X53232Y4411D01*
X53199Y4428D01*
X53169Y4446D01*
X53144Y4467D01*
X53121Y4489D01*
X53103Y4513D01*
X53088Y4537D01*
X53075Y4561D01*
X53066Y4585D01*
X53058Y4609D01*
X53051Y4631D01*
X53047Y4652D01*
X53045Y4668D01*
X53044Y4683D01*
X53042Y4694D01*
Y4702D01*
Y4704D01*
X53044Y4728D01*
X53045Y4752D01*
X53056Y4794D01*
X53071Y4833D01*
X53088Y4865D01*
X53105Y4891D01*
X53112Y4902D01*
X53119Y4911D01*
X53125Y4918D01*
X53131Y4924D01*
X53132Y4926D01*
X53134Y4928D01*
X53153Y4944D01*
X53171Y4959D01*
X53190Y4970D01*
X53208Y4981D01*
X53245Y4998D01*
X53281Y5009D01*
X53312Y5015D01*
X53325Y5018D01*
X53336D01*
X53345Y5020D01*
X53621D01*
X53638Y5018D01*
D02*
G37*
G36*
X52607Y5017D02*
X52644Y5007D01*
X52675Y4996D01*
X52703Y4981D01*
X52725Y4967D01*
X52740Y4955D01*
X52751Y4946D01*
X52755Y4942D01*
X52781Y4913D01*
X52799Y4881D01*
X52812Y4850D01*
X52821Y4820D01*
X52827Y4794D01*
X52829Y4774D01*
X52831Y4767D01*
Y4761D01*
Y4757D01*
Y4755D01*
Y4652D01*
X52827Y4613D01*
X52819Y4576D01*
X52807Y4544D01*
X52792Y4517D01*
X52779Y4494D01*
X52766Y4480D01*
X52758Y4468D01*
X52755Y4465D01*
X52725Y4439D01*
X52692Y4420D01*
X52662Y4407D01*
X52632Y4398D01*
X52607Y4393D01*
X52586Y4391D01*
X52579Y4389D01*
X52414D01*
X52420Y4357D01*
X52429Y4328D01*
X52440Y4300D01*
X52453Y4274D01*
X52468Y4248D01*
X52482Y4226D01*
X52499Y4204D01*
X52518Y4185D01*
X52534Y4168D01*
X52549Y4154D01*
X52564Y4141D01*
X52577Y4130D01*
X52588Y4120D01*
X52597Y4115D01*
X52603Y4111D01*
X52605Y4109D01*
X52620Y4100D01*
X52634Y4093D01*
X52666Y4078D01*
X52679Y4072D01*
X52690Y4068D01*
X52697Y4067D01*
X52699Y4065D01*
X52708Y4061D01*
X52716Y4056D01*
X52720Y4048D01*
X52723Y4041D01*
X52725Y4033D01*
X52727Y4026D01*
Y4022D01*
Y4020D01*
X52725Y4006D01*
X52718Y3994D01*
X52712Y3987D01*
X52710Y3983D01*
X52697Y3974D01*
X52686Y3970D01*
X52677Y3968D01*
X52673D01*
X52657Y3970D01*
X52640Y3976D01*
X52620Y3985D01*
X52599Y3994D01*
X52582Y4002D01*
X52568Y4011D01*
X52558Y4017D01*
X52555Y4018D01*
X52510Y4048D01*
X52471Y4081D01*
X52438Y4115D01*
X52410Y4150D01*
X52386Y4185D01*
X52366Y4220D01*
X52349Y4256D01*
X52336Y4289D01*
X52325Y4318D01*
X52318Y4348D01*
X52312Y4374D01*
X52308Y4396D01*
X52307Y4415D01*
X52305Y4430D01*
Y4437D01*
Y4441D01*
Y4757D01*
X52308Y4796D01*
X52318Y4833D01*
X52329Y4865D01*
X52344Y4891D01*
X52358Y4913D01*
X52370Y4930D01*
X52379Y4939D01*
X52382Y4942D01*
X52412Y4968D01*
X52444Y4987D01*
X52475Y5002D01*
X52503Y5011D01*
X52529Y5017D01*
X52549Y5018D01*
X52557Y5020D01*
X52568D01*
X52607Y5017D01*
D02*
G37*
G36*
X55282Y19600D02*
X55295Y19596D01*
X55302Y19589D01*
X55310Y19583D01*
X55315Y19576D01*
X55319Y19568D01*
X55321Y19565D01*
Y19563D01*
X55532Y18828D01*
Y18818D01*
Y18815D01*
Y18813D01*
X55530Y18796D01*
X55525Y18783D01*
X55515Y18774D01*
X55506Y18768D01*
X55497Y18765D01*
X55488Y18761D01*
X55164D01*
Y18602D01*
X55162Y18585D01*
X55156Y18572D01*
X55147Y18563D01*
X55138Y18557D01*
X55128Y18554D01*
X55119Y18550D01*
X55112D01*
X55093Y18552D01*
X55080Y18557D01*
X55071Y18567D01*
X55065Y18576D01*
X55060Y18585D01*
X55058Y18594D01*
Y18600D01*
Y18602D01*
Y18761D01*
X54954D01*
X54936Y18763D01*
X54923Y18768D01*
X54914Y18778D01*
X54908Y18787D01*
X54902Y18796D01*
X54901Y18806D01*
Y18811D01*
Y18813D01*
X54902Y18831D01*
X54908Y18844D01*
X54917Y18854D01*
X54927Y18859D01*
X54938Y18865D01*
X54945Y18867D01*
X55058D01*
Y19024D01*
X55060Y19043D01*
X55065Y19056D01*
X55075Y19065D01*
X55084Y19070D01*
X55095Y19076D01*
X55102Y19078D01*
X55112D01*
X55128Y19076D01*
X55141Y19070D01*
X55151Y19061D01*
X55156Y19052D01*
X55160Y19041D01*
X55164Y19033D01*
Y19026D01*
Y19024D01*
Y18867D01*
X55410D01*
X55219Y19533D01*
X55217Y19544D01*
Y19546D01*
Y19548D01*
X55219Y19567D01*
X55225Y19580D01*
X55234Y19589D01*
X55243Y19594D01*
X55252Y19600D01*
X55262Y19602D01*
X55269D01*
X55282Y19600D01*
D02*
G37*
G36*
X56234D02*
X56247Y19594D01*
X56256Y19585D01*
X56262Y19576D01*
X56265Y19565D01*
X56269Y19557D01*
Y19550D01*
Y19548D01*
Y18602D01*
X56267Y18585D01*
X56262Y18572D01*
X56252Y18563D01*
X56243Y18557D01*
X56234Y18554D01*
X56225Y18550D01*
X55797D01*
X55778Y18552D01*
X55765Y18557D01*
X55756Y18567D01*
X55751Y18576D01*
X55745Y18585D01*
X55743Y18594D01*
Y18600D01*
Y18602D01*
X55745Y18620D01*
X55751Y18633D01*
X55760Y18643D01*
X55769Y18648D01*
X55780Y18654D01*
X55788Y18656D01*
X56163D01*
Y19548D01*
X56165Y19567D01*
X56171Y19580D01*
X56180Y19589D01*
X56189Y19594D01*
X56200Y19600D01*
X56208Y19602D01*
X56217D01*
X56234Y19600D01*
D02*
G37*
G36*
X61793Y19654D02*
X61806Y19648D01*
X61815Y19641D01*
X61817Y19639D01*
X61819Y19637D01*
X62024Y19431D01*
X62034Y19418D01*
X62037Y19407D01*
X62039Y19398D01*
Y19396D01*
Y19394D01*
X62037Y19376D01*
X62032Y19363D01*
X62022Y19354D01*
X62013Y19348D01*
X62004Y19344D01*
X61995Y19341D01*
X61987D01*
X61972Y19342D01*
X61960Y19348D01*
X61952Y19354D01*
X61950Y19355D01*
X61828Y19478D01*
Y18657D01*
X61826Y18641D01*
X61821Y18628D01*
X61811Y18618D01*
X61802Y18613D01*
X61793Y18609D01*
X61784Y18605D01*
X61776D01*
X61758Y18607D01*
X61745Y18613D01*
X61735Y18622D01*
X61730Y18631D01*
X61724Y18641D01*
X61723Y18650D01*
Y18655D01*
Y18657D01*
Y19604D01*
X61724Y19622D01*
X61730Y19635D01*
X61739Y19644D01*
X61748Y19650D01*
X61760Y19655D01*
X61767Y19657D01*
X61784D01*
X61793Y19654D01*
D02*
G37*
G36*
X62552D02*
X62589Y19644D01*
X62621Y19633D01*
X62648Y19618D01*
X62671Y19604D01*
X62685Y19592D01*
X62696Y19583D01*
X62700Y19579D01*
X62726Y19550D01*
X62745Y19518D01*
X62758Y19487D01*
X62767Y19457D01*
X62772Y19433D01*
X62774Y19413D01*
X62776Y19405D01*
Y19400D01*
Y19396D01*
Y19394D01*
Y18868D01*
X62772Y18830D01*
X62765Y18793D01*
X62752Y18761D01*
X62737Y18733D01*
X62724Y18711D01*
X62711Y18696D01*
X62704Y18685D01*
X62700Y18681D01*
X62671Y18655D01*
X62637Y18637D01*
X62608Y18624D01*
X62578Y18615D01*
X62552Y18609D01*
X62532Y18607D01*
X62524Y18605D01*
X62304D01*
X62285Y18607D01*
X62272Y18613D01*
X62263Y18622D01*
X62258Y18631D01*
X62252Y18641D01*
X62250Y18650D01*
Y18655D01*
Y18657D01*
X62252Y18676D01*
X62258Y18689D01*
X62267Y18698D01*
X62276Y18704D01*
X62287Y18709D01*
X62295Y18711D01*
X62513D01*
X62537Y18713D01*
X62559Y18718D01*
X62578Y18726D01*
X62595Y18733D01*
X62608Y18741D01*
X62617Y18748D01*
X62624Y18754D01*
X62626Y18755D01*
X62641Y18774D01*
X62652Y18793D01*
X62659Y18811D01*
X62665Y18830D01*
X62669Y18844D01*
X62671Y18857D01*
Y18865D01*
Y18868D01*
Y19392D01*
X62669Y19417D01*
X62663Y19439D01*
X62656Y19457D01*
X62648Y19474D01*
X62641Y19487D01*
X62634Y19498D01*
X62628Y19504D01*
X62626Y19505D01*
X62608Y19520D01*
X62589Y19531D01*
X62571Y19541D01*
X62552Y19546D01*
X62537Y19550D01*
X62524Y19552D01*
X62304D01*
X62285Y19554D01*
X62272Y19559D01*
X62263Y19568D01*
X62258Y19578D01*
X62252Y19587D01*
X62250Y19596D01*
Y19602D01*
Y19604D01*
X62252Y19622D01*
X62258Y19635D01*
X62267Y19644D01*
X62276Y19650D01*
X62287Y19655D01*
X62295Y19657D01*
X62513D01*
X62552Y19654D01*
D02*
G37*
G36*
X61478Y19655D02*
X61491Y19650D01*
X61500Y19641D01*
X61506Y19631D01*
X61510Y19620D01*
X61513Y19613D01*
Y19605D01*
Y19604D01*
X61511Y19587D01*
X61506Y19574D01*
X61497Y19565D01*
X61487Y19559D01*
X61478Y19555D01*
X61469Y19552D01*
X61252D01*
X61228Y19550D01*
X61206Y19544D01*
X61187Y19537D01*
X61171Y19529D01*
X61158Y19520D01*
X61147Y19513D01*
X61141Y19507D01*
X61139Y19505D01*
X61124Y19487D01*
X61113Y19468D01*
X61104Y19450D01*
X61098Y19433D01*
X61095Y19417D01*
X61093Y19405D01*
Y19398D01*
Y19394D01*
X61095Y19370D01*
X61100Y19348D01*
X61108Y19330D01*
X61115Y19313D01*
X61124Y19300D01*
X61132Y19291D01*
X61137Y19283D01*
X61139Y19281D01*
X61158Y19267D01*
X61176Y19255D01*
X61195Y19248D01*
X61213Y19242D01*
X61228Y19239D01*
X61241Y19237D01*
X61358D01*
X61374Y19235D01*
X61387Y19230D01*
X61397Y19220D01*
X61402Y19211D01*
X61406Y19200D01*
X61410Y19192D01*
Y19185D01*
Y19183D01*
X61408Y19167D01*
X61402Y19154D01*
X61393Y19144D01*
X61384Y19139D01*
X61374Y19135D01*
X61365Y19131D01*
X61252D01*
X61228Y19130D01*
X61208Y19124D01*
X61189Y19117D01*
X61173Y19109D01*
X61160Y19100D01*
X61148Y19092D01*
X61143Y19087D01*
X61141Y19085D01*
X61124Y19067D01*
X61113Y19048D01*
X61104Y19030D01*
X61098Y19011D01*
X61095Y18996D01*
X61093Y18983D01*
Y18976D01*
Y18972D01*
Y18868D01*
X61095Y18844D01*
X61100Y18822D01*
X61108Y18804D01*
X61115Y18787D01*
X61124Y18774D01*
X61132Y18765D01*
X61137Y18757D01*
X61139Y18755D01*
X61158Y18741D01*
X61176Y18730D01*
X61195Y18722D01*
X61213Y18717D01*
X61228Y18713D01*
X61241Y18711D01*
X61461D01*
X61478Y18709D01*
X61491Y18704D01*
X61500Y18694D01*
X61506Y18685D01*
X61510Y18674D01*
X61513Y18667D01*
Y18659D01*
Y18657D01*
X61511Y18641D01*
X61506Y18628D01*
X61497Y18618D01*
X61487Y18613D01*
X61478Y18609D01*
X61469Y18605D01*
X61250D01*
X61211Y18609D01*
X61176Y18617D01*
X61145Y18630D01*
X61117Y18644D01*
X61095Y18657D01*
X61078Y18670D01*
X61069Y18678D01*
X61065Y18681D01*
X61039Y18711D01*
X61021Y18744D01*
X61006Y18774D01*
X60997Y18804D01*
X60991Y18830D01*
X60989Y18850D01*
X60987Y18857D01*
Y18863D01*
Y18867D01*
Y18868D01*
Y18972D01*
X60989Y18996D01*
X60991Y19018D01*
X60997Y19041D01*
X61004Y19061D01*
X61021Y19096D01*
X61039Y19128D01*
X61060Y19152D01*
X61076Y19168D01*
X61084Y19176D01*
X61089Y19180D01*
X61091Y19183D01*
X61093D01*
X61074Y19198D01*
X61058Y19215D01*
X61045Y19233D01*
X61032Y19250D01*
X61021Y19268D01*
X61013Y19285D01*
X61000Y19318D01*
X60993Y19348D01*
X60991Y19361D01*
X60989Y19372D01*
X60987Y19381D01*
Y19389D01*
Y19392D01*
Y19394D01*
X60991Y19433D01*
X61000Y19468D01*
X61011Y19500D01*
X61026Y19528D01*
X61041Y19550D01*
X61052Y19567D01*
X61061Y19576D01*
X61065Y19579D01*
X61095Y19605D01*
X61126Y19624D01*
X61158Y19639D01*
X61187Y19648D01*
X61211Y19654D01*
X61232Y19655D01*
X61239Y19657D01*
X61461D01*
X61478Y19655D01*
D02*
G37*
G36*
X59391Y23602D02*
X59419Y23596D01*
X59445Y23587D01*
X59470Y23574D01*
X59493Y23559D01*
X59513Y23544D01*
X59533Y23528D01*
X59552Y23509D01*
X59567Y23493D01*
X59582Y23474D01*
X59593Y23459D01*
X59602Y23444D01*
X59611Y23432D01*
X59617Y23422D01*
X59619Y23417D01*
X59620Y23415D01*
X59624Y23400D01*
Y23395D01*
Y23393D01*
X59622Y23376D01*
X59617Y23363D01*
X59607Y23354D01*
X59598Y23348D01*
X59589Y23345D01*
X59580Y23341D01*
X59572D01*
X59561Y23343D01*
X59552Y23345D01*
X59539Y23354D01*
X59530Y23363D01*
X59528Y23365D01*
Y23367D01*
X59513Y23391D01*
X59498Y23409D01*
X59485Y23428D01*
X59470Y23443D01*
X59456Y23456D01*
X59443Y23467D01*
X59430Y23474D01*
X59417Y23482D01*
X59395Y23491D01*
X59378Y23496D01*
X59367Y23498D01*
X59363D01*
X59339Y23496D01*
X59317Y23491D01*
X59298Y23483D01*
X59282Y23476D01*
X59269Y23467D01*
X59258Y23459D01*
X59252Y23454D01*
X59250Y23452D01*
X59235Y23433D01*
X59224Y23415D01*
X59215Y23396D01*
X59209Y23380D01*
X59206Y23363D01*
X59204Y23352D01*
Y23345D01*
Y23341D01*
X59206Y23324D01*
X59208Y23309D01*
X59211Y23295D01*
X59217Y23282D01*
X59222Y23270D01*
X59226Y23261D01*
X59228Y23256D01*
X59230Y23254D01*
X59617Y22633D01*
X59620Y22624D01*
X59622Y22613D01*
X59624Y22608D01*
Y22604D01*
X59622Y22587D01*
X59617Y22574D01*
X59607Y22565D01*
X59598Y22559D01*
X59589Y22556D01*
X59580Y22552D01*
X59152D01*
X59133Y22554D01*
X59121Y22559D01*
X59111Y22569D01*
X59106Y22578D01*
X59100Y22587D01*
X59098Y22596D01*
Y22602D01*
Y22604D01*
X59100Y22622D01*
X59106Y22635D01*
X59115Y22645D01*
X59124Y22650D01*
X59135Y22656D01*
X59143Y22658D01*
X59478D01*
X59146Y23189D01*
X59130Y23217D01*
X59119Y23245D01*
X59109Y23270D01*
X59104Y23293D01*
X59100Y23313D01*
X59098Y23328D01*
Y23337D01*
Y23341D01*
X59102Y23380D01*
X59111Y23415D01*
X59122Y23446D01*
X59137Y23474D01*
X59152Y23496D01*
X59163Y23513D01*
X59172Y23522D01*
X59176Y23526D01*
X59206Y23552D01*
X59237Y23570D01*
X59269Y23585D01*
X59298Y23594D01*
X59322Y23600D01*
X59343Y23602D01*
X59350Y23604D01*
X59361D01*
X59391Y23602D01*
D02*
G37*
G36*
X59904Y23600D02*
X59917Y23594D01*
X59926Y23587D01*
X59928Y23585D01*
X59930Y23583D01*
X60135Y23378D01*
X60144Y23365D01*
X60148Y23354D01*
X60150Y23345D01*
Y23343D01*
Y23341D01*
X60148Y23322D01*
X60143Y23309D01*
X60133Y23300D01*
X60124Y23295D01*
X60115Y23291D01*
X60106Y23287D01*
X60098D01*
X60083Y23289D01*
X60070Y23295D01*
X60063Y23300D01*
X60061Y23302D01*
X59939Y23424D01*
Y22604D01*
X59937Y22587D01*
X59932Y22574D01*
X59922Y22565D01*
X59913Y22559D01*
X59904Y22556D01*
X59895Y22552D01*
X59887D01*
X59869Y22554D01*
X59856Y22559D01*
X59846Y22569D01*
X59841Y22578D01*
X59835Y22587D01*
X59833Y22596D01*
Y22602D01*
Y22604D01*
Y23550D01*
X59835Y23569D01*
X59841Y23582D01*
X59850Y23591D01*
X59859Y23596D01*
X59870Y23602D01*
X59878Y23604D01*
X59895D01*
X59904Y23600D01*
D02*
G37*
G36*
X60663D02*
X60700Y23591D01*
X60731Y23580D01*
X60759Y23565D01*
X60781Y23550D01*
X60796Y23539D01*
X60807Y23530D01*
X60811Y23526D01*
X60837Y23496D01*
X60856Y23465D01*
X60868Y23433D01*
X60878Y23404D01*
X60883Y23380D01*
X60885Y23359D01*
X60887Y23352D01*
Y23346D01*
Y23343D01*
Y23341D01*
Y22815D01*
X60883Y22776D01*
X60876Y22739D01*
X60863Y22708D01*
X60848Y22680D01*
X60835Y22658D01*
X60822Y22643D01*
X60815Y22632D01*
X60811Y22628D01*
X60781Y22602D01*
X60748Y22583D01*
X60718Y22571D01*
X60689Y22561D01*
X60663Y22556D01*
X60643Y22554D01*
X60635Y22552D01*
X60415D01*
X60396Y22554D01*
X60383Y22559D01*
X60374Y22569D01*
X60369Y22578D01*
X60363Y22587D01*
X60361Y22596D01*
Y22602D01*
Y22604D01*
X60363Y22622D01*
X60369Y22635D01*
X60378Y22645D01*
X60387Y22650D01*
X60398Y22656D01*
X60406Y22658D01*
X60624D01*
X60648Y22659D01*
X60670Y22665D01*
X60689Y22672D01*
X60706Y22680D01*
X60718Y22687D01*
X60728Y22695D01*
X60735Y22700D01*
X60737Y22702D01*
X60752Y22721D01*
X60763Y22739D01*
X60770Y22758D01*
X60776Y22776D01*
X60780Y22791D01*
X60781Y22804D01*
Y22811D01*
Y22815D01*
Y23339D01*
X60780Y23363D01*
X60774Y23385D01*
X60767Y23404D01*
X60759Y23420D01*
X60752Y23433D01*
X60744Y23444D01*
X60739Y23450D01*
X60737Y23452D01*
X60718Y23467D01*
X60700Y23478D01*
X60681Y23487D01*
X60663Y23493D01*
X60648Y23496D01*
X60635Y23498D01*
X60415D01*
X60396Y23500D01*
X60383Y23506D01*
X60374Y23515D01*
X60369Y23524D01*
X60363Y23533D01*
X60361Y23543D01*
Y23548D01*
Y23550D01*
X60363Y23569D01*
X60369Y23582D01*
X60378Y23591D01*
X60387Y23596D01*
X60398Y23602D01*
X60406Y23604D01*
X60624D01*
X60663Y23600D01*
D02*
G37*
G36*
X59459Y18917D02*
X59472Y18911D01*
X59481Y18904D01*
X59483Y18902D01*
X59485Y18900D01*
X59690Y18694D01*
X59700Y18681D01*
X59703Y18670D01*
X59705Y18661D01*
Y18659D01*
Y18657D01*
X59703Y18639D01*
X59698Y18626D01*
X59688Y18617D01*
X59679Y18611D01*
X59670Y18607D01*
X59661Y18604D01*
X59653D01*
X59638Y18605D01*
X59626Y18611D01*
X59618Y18617D01*
X59616Y18618D01*
X59494Y18741D01*
Y17920D01*
X59492Y17904D01*
X59487Y17891D01*
X59477Y17881D01*
X59468Y17876D01*
X59459Y17872D01*
X59450Y17868D01*
X59442D01*
X59424Y17870D01*
X59411Y17876D01*
X59401Y17885D01*
X59396Y17894D01*
X59390Y17904D01*
X59389Y17913D01*
Y17919D01*
Y17920D01*
Y18867D01*
X59390Y18885D01*
X59396Y18898D01*
X59405Y18907D01*
X59414Y18913D01*
X59426Y18918D01*
X59433Y18920D01*
X59450D01*
X59459Y18917D01*
D02*
G37*
G36*
X60218D02*
X60255Y18907D01*
X60287Y18896D01*
X60314Y18881D01*
X60337Y18867D01*
X60351Y18855D01*
X60362Y18846D01*
X60366Y18842D01*
X60392Y18813D01*
X60411Y18781D01*
X60424Y18750D01*
X60433Y18720D01*
X60438Y18696D01*
X60440Y18676D01*
X60442Y18668D01*
Y18663D01*
Y18659D01*
Y18657D01*
Y18131D01*
X60438Y18093D01*
X60431Y18056D01*
X60418Y18024D01*
X60403Y17996D01*
X60390Y17974D01*
X60377Y17959D01*
X60370Y17948D01*
X60366Y17944D01*
X60337Y17919D01*
X60303Y17900D01*
X60274Y17887D01*
X60244Y17878D01*
X60218Y17872D01*
X60198Y17870D01*
X60190Y17868D01*
X59970D01*
X59951Y17870D01*
X59938Y17876D01*
X59929Y17885D01*
X59924Y17894D01*
X59918Y17904D01*
X59916Y17913D01*
Y17919D01*
Y17920D01*
X59918Y17939D01*
X59924Y17952D01*
X59933Y17961D01*
X59942Y17967D01*
X59953Y17972D01*
X59961Y17974D01*
X60179D01*
X60203Y17976D01*
X60225Y17981D01*
X60244Y17989D01*
X60261Y17996D01*
X60274Y18004D01*
X60283Y18011D01*
X60290Y18017D01*
X60292Y18018D01*
X60307Y18037D01*
X60318Y18056D01*
X60325Y18074D01*
X60331Y18093D01*
X60335Y18107D01*
X60337Y18120D01*
Y18128D01*
Y18131D01*
Y18655D01*
X60335Y18680D01*
X60329Y18702D01*
X60322Y18720D01*
X60314Y18737D01*
X60307Y18750D01*
X60300Y18761D01*
X60294Y18767D01*
X60292Y18768D01*
X60274Y18783D01*
X60255Y18794D01*
X60237Y18804D01*
X60218Y18809D01*
X60203Y18813D01*
X60190Y18815D01*
X59970D01*
X59951Y18817D01*
X59938Y18822D01*
X59929Y18831D01*
X59924Y18841D01*
X59918Y18850D01*
X59916Y18859D01*
Y18865D01*
Y18867D01*
X59918Y18885D01*
X59924Y18898D01*
X59933Y18907D01*
X59942Y18913D01*
X59953Y18918D01*
X59961Y18920D01*
X60179D01*
X60218Y18917D01*
D02*
G37*
G36*
X58944Y18918D02*
X58968Y18911D01*
X58992Y18902D01*
X59014Y18889D01*
X59033Y18874D01*
X59051Y18857D01*
X59081Y18820D01*
X59105Y18783D01*
X59114Y18767D01*
X59122Y18752D01*
X59127Y18739D01*
X59131Y18730D01*
X59135Y18722D01*
Y18720D01*
X59150Y18667D01*
X59161Y18611D01*
X59168Y18555D01*
X59174Y18505D01*
X59176Y18481D01*
X59177Y18461D01*
Y18443D01*
X59179Y18426D01*
Y18413D01*
Y18404D01*
Y18396D01*
Y18394D01*
X59177Y18326D01*
X59172Y18265D01*
X59168Y18235D01*
X59164Y18209D01*
X59161Y18183D01*
X59157Y18161D01*
X59153Y18141D01*
X59150Y18122D01*
X59146Y18106D01*
X59142Y18093D01*
X59139Y18083D01*
X59137Y18074D01*
X59135Y18070D01*
Y18068D01*
X59122Y18033D01*
X59105Y18002D01*
X59089Y17976D01*
X59072Y17954D01*
X59053Y17933D01*
X59035Y17917D01*
X59018Y17904D01*
X59000Y17894D01*
X58983Y17885D01*
X58968Y17880D01*
X58953Y17874D01*
X58940Y17872D01*
X58931Y17870D01*
X58924Y17868D01*
X58916D01*
X58889Y17870D01*
X58864Y17878D01*
X58840Y17887D01*
X58820Y17900D01*
X58800Y17915D01*
X58783Y17931D01*
X58752Y17968D01*
X58729Y18006D01*
X58720Y18022D01*
X58713Y18037D01*
X58707Y18050D01*
X58703Y18059D01*
X58700Y18067D01*
Y18068D01*
X58685Y18122D01*
X58674Y18178D01*
X58665Y18231D01*
X58659Y18283D01*
X58657Y18305D01*
X58655Y18328D01*
Y18346D01*
X58653Y18363D01*
Y18376D01*
Y18387D01*
Y18393D01*
Y18394D01*
X58655Y18463D01*
X58661Y18524D01*
X58665Y18552D01*
X58668Y18580D01*
X58672Y18604D01*
X58676Y18626D01*
X58681Y18646D01*
X58685Y18665D01*
X58689Y18681D01*
X58692Y18694D01*
X58696Y18705D01*
X58698Y18713D01*
X58700Y18717D01*
Y18718D01*
X58713Y18754D01*
X58729Y18785D01*
X58746Y18813D01*
X58763Y18835D01*
X58781Y18855D01*
X58798Y18870D01*
X58816Y18885D01*
X58833Y18894D01*
X58850Y18904D01*
X58866Y18909D01*
X58879Y18915D01*
X58892Y18917D01*
X58902Y18918D01*
X58909Y18920D01*
X58916D01*
X58944Y18918D01*
D02*
G37*
G36*
X50576Y27648D02*
X50613Y27639D01*
X50644Y27628D01*
X50672Y27613D01*
X50694Y27598D01*
X50709Y27587D01*
X50720Y27578D01*
X50724Y27574D01*
X50750Y27544D01*
X50769Y27513D01*
X50781Y27481D01*
X50791Y27452D01*
X50796Y27428D01*
X50798Y27407D01*
X50800Y27400D01*
Y27394D01*
Y27391D01*
Y27389D01*
Y26863D01*
X50796Y26824D01*
X50789Y26787D01*
X50776Y26756D01*
X50761Y26728D01*
X50748Y26706D01*
X50735Y26691D01*
X50728Y26680D01*
X50724Y26676D01*
X50694Y26650D01*
X50661Y26631D01*
X50632Y26619D01*
X50602Y26609D01*
X50576Y26604D01*
X50556Y26602D01*
X50548Y26600D01*
X50328D01*
X50309Y26602D01*
X50296Y26607D01*
X50287Y26617D01*
X50282Y26626D01*
X50276Y26635D01*
X50274Y26644D01*
Y26650D01*
Y26652D01*
X50276Y26670D01*
X50282Y26683D01*
X50291Y26693D01*
X50300Y26698D01*
X50311Y26704D01*
X50319Y26706D01*
X50537D01*
X50561Y26707D01*
X50583Y26713D01*
X50602Y26720D01*
X50619Y26728D01*
X50632Y26735D01*
X50641Y26743D01*
X50648Y26748D01*
X50650Y26750D01*
X50665Y26768D01*
X50676Y26787D01*
X50683Y26806D01*
X50689Y26824D01*
X50693Y26839D01*
X50694Y26852D01*
Y26859D01*
Y26863D01*
Y27387D01*
X50693Y27411D01*
X50687Y27433D01*
X50680Y27452D01*
X50672Y27468D01*
X50665Y27481D01*
X50657Y27493D01*
X50652Y27498D01*
X50650Y27500D01*
X50632Y27515D01*
X50613Y27526D01*
X50594Y27535D01*
X50576Y27541D01*
X50561Y27544D01*
X50548Y27546D01*
X50328D01*
X50309Y27548D01*
X50296Y27554D01*
X50287Y27563D01*
X50282Y27572D01*
X50276Y27581D01*
X50274Y27591D01*
Y27596D01*
Y27598D01*
X50276Y27617D01*
X50282Y27630D01*
X50291Y27639D01*
X50300Y27644D01*
X50311Y27650D01*
X50319Y27652D01*
X50537D01*
X50576Y27648D01*
D02*
G37*
G36*
X49839D02*
X49876Y27639D01*
X49908Y27628D01*
X49935Y27613D01*
X49957Y27598D01*
X49972Y27587D01*
X49983Y27578D01*
X49987Y27574D01*
X50013Y27544D01*
X50032Y27513D01*
X50045Y27481D01*
X50054Y27452D01*
X50059Y27426D01*
X50061Y27405D01*
X50063Y27398D01*
Y27393D01*
Y27389D01*
Y27387D01*
Y27283D01*
X50059Y27244D01*
X50052Y27207D01*
X50039Y27176D01*
X50024Y27148D01*
X50011Y27126D01*
X49998Y27111D01*
X49991Y27100D01*
X49987Y27096D01*
X49957Y27070D01*
X49924Y27052D01*
X49895Y27039D01*
X49865Y27030D01*
X49839Y27024D01*
X49819Y27022D01*
X49811Y27020D01*
X49646D01*
X49652Y26989D01*
X49661Y26959D01*
X49672Y26931D01*
X49685Y26906D01*
X49700Y26880D01*
X49715Y26857D01*
X49732Y26835D01*
X49750Y26817D01*
X49767Y26800D01*
X49782Y26785D01*
X49796Y26772D01*
X49809Y26761D01*
X49820Y26752D01*
X49830Y26746D01*
X49835Y26743D01*
X49837Y26741D01*
X49852Y26731D01*
X49867Y26724D01*
X49898Y26709D01*
X49911Y26704D01*
X49922Y26700D01*
X49930Y26698D01*
X49932Y26696D01*
X49941Y26693D01*
X49948Y26687D01*
X49952Y26680D01*
X49956Y26672D01*
X49957Y26665D01*
X49959Y26657D01*
Y26654D01*
Y26652D01*
X49957Y26637D01*
X49950Y26626D01*
X49945Y26619D01*
X49943Y26615D01*
X49930Y26606D01*
X49919Y26602D01*
X49909Y26600D01*
X49906D01*
X49889Y26602D01*
X49872Y26607D01*
X49852Y26617D01*
X49832Y26626D01*
X49815Y26633D01*
X49800Y26643D01*
X49791Y26648D01*
X49787Y26650D01*
X49743Y26680D01*
X49704Y26713D01*
X49670Y26746D01*
X49643Y26781D01*
X49619Y26817D01*
X49598Y26852D01*
X49582Y26887D01*
X49569Y26920D01*
X49558Y26950D01*
X49550Y26980D01*
X49545Y27006D01*
X49541Y27028D01*
X49539Y27046D01*
X49537Y27061D01*
Y27068D01*
Y27072D01*
Y27389D01*
X49541Y27428D01*
X49550Y27465D01*
X49561Y27496D01*
X49576Y27522D01*
X49591Y27544D01*
X49602Y27561D01*
X49611Y27570D01*
X49615Y27574D01*
X49645Y27600D01*
X49676Y27618D01*
X49708Y27633D01*
X49735Y27642D01*
X49761Y27648D01*
X49782Y27650D01*
X49789Y27652D01*
X49800D01*
X49839Y27648D01*
D02*
G37*
G36*
X58545Y27721D02*
X58582Y27712D01*
X58613Y27701D01*
X58641Y27686D01*
X58663Y27671D01*
X58678Y27660D01*
X58689Y27651D01*
X58693Y27647D01*
X58719Y27617D01*
X58738Y27586D01*
X58750Y27554D01*
X58760Y27525D01*
X58765Y27501D01*
X58767Y27480D01*
X58769Y27473D01*
Y27467D01*
Y27464D01*
Y27462D01*
Y26936D01*
X58765Y26897D01*
X58758Y26860D01*
X58745Y26829D01*
X58730Y26801D01*
X58717Y26779D01*
X58704Y26764D01*
X58697Y26753D01*
X58693Y26749D01*
X58663Y26723D01*
X58630Y26705D01*
X58600Y26692D01*
X58571Y26682D01*
X58545Y26677D01*
X58525Y26675D01*
X58517Y26673D01*
X58297D01*
X58278Y26675D01*
X58265Y26681D01*
X58256Y26690D01*
X58251Y26699D01*
X58245Y26708D01*
X58243Y26718D01*
Y26723D01*
Y26725D01*
X58245Y26743D01*
X58251Y26756D01*
X58260Y26766D01*
X58269Y26771D01*
X58280Y26777D01*
X58288Y26779D01*
X58506D01*
X58530Y26781D01*
X58552Y26786D01*
X58571Y26793D01*
X58588Y26801D01*
X58600Y26808D01*
X58610Y26816D01*
X58617Y26821D01*
X58619Y26823D01*
X58634Y26842D01*
X58645Y26860D01*
X58652Y26879D01*
X58658Y26897D01*
X58662Y26912D01*
X58663Y26925D01*
Y26932D01*
Y26936D01*
Y27460D01*
X58662Y27484D01*
X58656Y27506D01*
X58649Y27525D01*
X58641Y27542D01*
X58634Y27554D01*
X58626Y27566D01*
X58621Y27571D01*
X58619Y27573D01*
X58600Y27588D01*
X58582Y27599D01*
X58563Y27608D01*
X58545Y27614D01*
X58530Y27617D01*
X58517Y27619D01*
X58297D01*
X58278Y27621D01*
X58265Y27627D01*
X58256Y27636D01*
X58251Y27645D01*
X58245Y27654D01*
X58243Y27664D01*
Y27669D01*
Y27671D01*
X58245Y27690D01*
X58251Y27703D01*
X58260Y27712D01*
X58269Y27717D01*
X58280Y27723D01*
X58288Y27725D01*
X58506D01*
X58545Y27721D01*
D02*
G37*
G36*
X57808D02*
X57845Y27712D01*
X57876Y27701D01*
X57904Y27686D01*
X57926Y27671D01*
X57941Y27660D01*
X57952Y27651D01*
X57956Y27647D01*
X57982Y27617D01*
X58001Y27586D01*
X58014Y27554D01*
X58023Y27525D01*
X58028Y27501D01*
X58030Y27480D01*
X58032Y27473D01*
Y27467D01*
Y27464D01*
Y27462D01*
X58030Y27438D01*
X58028Y27416D01*
X58015Y27373D01*
X57999Y27338D01*
X57980Y27306D01*
X57962Y27282D01*
X57945Y27266D01*
X57932Y27255D01*
X57930Y27253D01*
X57928Y27251D01*
X57947Y27236D01*
X57962Y27219D01*
X57976Y27203D01*
X57988Y27184D01*
X58006Y27149D01*
X58019Y27116D01*
X58026Y27086D01*
X58028Y27073D01*
X58030Y27062D01*
X58032Y27053D01*
Y27045D01*
Y27042D01*
Y27040D01*
Y26936D01*
X58028Y26897D01*
X58021Y26860D01*
X58008Y26829D01*
X57993Y26801D01*
X57980Y26779D01*
X57967Y26764D01*
X57960Y26753D01*
X57956Y26749D01*
X57926Y26723D01*
X57893Y26705D01*
X57864Y26692D01*
X57834Y26682D01*
X57808Y26677D01*
X57788Y26675D01*
X57780Y26673D01*
X57769D01*
X57730Y26677D01*
X57695Y26684D01*
X57664Y26697D01*
X57636Y26712D01*
X57614Y26725D01*
X57597Y26738D01*
X57588Y26745D01*
X57584Y26749D01*
X57558Y26779D01*
X57540Y26812D01*
X57525Y26842D01*
X57515Y26871D01*
X57510Y26897D01*
X57508Y26918D01*
X57506Y26925D01*
Y26930D01*
Y26934D01*
Y26936D01*
Y26960D01*
Y26980D01*
X57508Y27001D01*
Y27019D01*
X57510Y27049D01*
X57512Y27073D01*
X57514Y27090D01*
X57515Y27101D01*
X57517Y27108D01*
Y27110D01*
X57527Y27140D01*
X57540Y27167D01*
X57554Y27192D01*
X57571Y27212D01*
X57586Y27229D01*
X57599Y27240D01*
X57608Y27249D01*
X57612Y27251D01*
X57593Y27266D01*
X57577Y27282D01*
X57564Y27301D01*
X57551Y27317D01*
X57540Y27336D01*
X57532Y27353D01*
X57519Y27386D01*
X57512Y27416D01*
X57510Y27429D01*
X57508Y27440D01*
X57506Y27449D01*
Y27456D01*
Y27460D01*
Y27462D01*
X57510Y27501D01*
X57519Y27536D01*
X57530Y27567D01*
X57545Y27595D01*
X57560Y27617D01*
X57571Y27634D01*
X57580Y27643D01*
X57584Y27647D01*
X57614Y27673D01*
X57645Y27692D01*
X57677Y27706D01*
X57706Y27716D01*
X57730Y27721D01*
X57751Y27723D01*
X57758Y27725D01*
X57769D01*
X57808Y27721D01*
D02*
G37*
G36*
X86136Y11208D02*
X86173Y11199D01*
X86204Y11188D01*
X86232Y11173D01*
X86254Y11158D01*
X86269Y11147D01*
X86280Y11138D01*
X86284Y11134D01*
X86310Y11104D01*
X86329Y11073D01*
X86341Y11041D01*
X86351Y11012D01*
X86356Y10988D01*
X86358Y10967D01*
X86360Y10960D01*
Y10954D01*
Y10951D01*
Y10949D01*
Y10423D01*
X86356Y10384D01*
X86349Y10347D01*
X86336Y10316D01*
X86321Y10288D01*
X86308Y10266D01*
X86295Y10251D01*
X86288Y10240D01*
X86284Y10236D01*
X86254Y10210D01*
X86221Y10191D01*
X86191Y10179D01*
X86162Y10169D01*
X86136Y10164D01*
X86116Y10162D01*
X86108Y10160D01*
X85888D01*
X85869Y10162D01*
X85856Y10167D01*
X85847Y10177D01*
X85842Y10186D01*
X85836Y10195D01*
X85834Y10204D01*
Y10210D01*
Y10212D01*
X85836Y10230D01*
X85842Y10243D01*
X85851Y10253D01*
X85860Y10258D01*
X85871Y10264D01*
X85879Y10266D01*
X86097D01*
X86121Y10267D01*
X86143Y10273D01*
X86162Y10280D01*
X86179Y10288D01*
X86191Y10295D01*
X86201Y10303D01*
X86208Y10308D01*
X86210Y10310D01*
X86225Y10328D01*
X86236Y10347D01*
X86243Y10366D01*
X86249Y10384D01*
X86253Y10399D01*
X86254Y10412D01*
Y10419D01*
Y10423D01*
Y10947D01*
X86253Y10971D01*
X86247Y10993D01*
X86240Y11012D01*
X86232Y11028D01*
X86225Y11041D01*
X86217Y11052D01*
X86212Y11058D01*
X86210Y11060D01*
X86191Y11075D01*
X86173Y11086D01*
X86154Y11095D01*
X86136Y11101D01*
X86121Y11104D01*
X86108Y11106D01*
X85888D01*
X85869Y11108D01*
X85856Y11114D01*
X85847Y11123D01*
X85842Y11132D01*
X85836Y11141D01*
X85834Y11151D01*
Y11156D01*
Y11158D01*
X85836Y11177D01*
X85842Y11190D01*
X85851Y11199D01*
X85860Y11204D01*
X85871Y11210D01*
X85879Y11212D01*
X86097D01*
X86136Y11208D01*
D02*
G37*
G36*
X85271Y11210D02*
X85286Y11206D01*
X85297Y11201D01*
X85301Y11199D01*
X85303D01*
X85343Y11180D01*
X85380Y11156D01*
X85414Y11132D01*
X85445Y11108D01*
X85469Y11086D01*
X85488Y11067D01*
X85495Y11060D01*
X85501Y11054D01*
X85503Y11052D01*
X85505Y11051D01*
X85525Y11025D01*
X85543Y10999D01*
X85560Y10971D01*
X85573Y10945D01*
X85584Y10917D01*
X85593Y10891D01*
X85608Y10843D01*
X85614Y10821D01*
X85617Y10801D01*
X85619Y10784D01*
X85621Y10767D01*
X85623Y10754D01*
Y10745D01*
Y10740D01*
Y10738D01*
Y10421D01*
X85619Y10382D01*
X85612Y10347D01*
X85599Y10314D01*
X85584Y10288D01*
X85571Y10266D01*
X85558Y10249D01*
X85551Y10240D01*
X85547Y10236D01*
X85517Y10210D01*
X85486Y10191D01*
X85455Y10179D01*
X85425Y10169D01*
X85399Y10164D01*
X85379Y10162D01*
X85371Y10160D01*
X85360D01*
X85321Y10164D01*
X85286Y10171D01*
X85255Y10184D01*
X85227Y10199D01*
X85205Y10212D01*
X85188Y10225D01*
X85179Y10232D01*
X85175Y10236D01*
X85149Y10266D01*
X85131Y10297D01*
X85116Y10328D01*
X85106Y10358D01*
X85101Y10384D01*
X85099Y10404D01*
X85097Y10412D01*
Y10417D01*
Y10421D01*
Y10423D01*
Y10527D01*
X85101Y10567D01*
X85108Y10603D01*
X85121Y10634D01*
X85134Y10662D01*
X85149Y10684D01*
X85162Y10701D01*
X85169Y10710D01*
X85173Y10714D01*
X85203Y10740D01*
X85234Y10758D01*
X85266Y10773D01*
X85295Y10782D01*
X85321Y10788D01*
X85342Y10790D01*
X85349Y10791D01*
X85514D01*
X85506Y10827D01*
X85497Y10860D01*
X85484Y10890D01*
X85469Y10917D01*
X85456Y10940D01*
X85445Y10958D01*
X85438Y10969D01*
X85434Y10971D01*
Y10973D01*
X85418Y10993D01*
X85401Y11012D01*
X85366Y11041D01*
X85330Y11065D01*
X85299Y11086D01*
X85271Y11099D01*
X85258Y11102D01*
X85249Y11108D01*
X85240Y11110D01*
X85234Y11112D01*
X85230Y11114D01*
X85229D01*
X85219Y11117D01*
X85214Y11123D01*
X85206Y11138D01*
X85205Y11145D01*
X85203Y11152D01*
Y11156D01*
Y11158D01*
X85205Y11177D01*
X85210Y11190D01*
X85219Y11199D01*
X85229Y11204D01*
X85240Y11210D01*
X85247Y11212D01*
X85256D01*
X85271Y11210D01*
D02*
G37*
G36*
X49338Y19062D02*
X49351Y19058D01*
X49358Y19051D01*
X49366Y19045D01*
X49371Y19038D01*
X49375Y19030D01*
X49377Y19027D01*
Y19025D01*
X49588Y18290D01*
Y18280D01*
Y18277D01*
Y18275D01*
X49586Y18258D01*
X49581Y18245D01*
X49571Y18236D01*
X49562Y18230D01*
X49553Y18227D01*
X49544Y18223D01*
X49220D01*
Y18064D01*
X49218Y18047D01*
X49212Y18034D01*
X49203Y18025D01*
X49194Y18019D01*
X49184Y18016D01*
X49175Y18012D01*
X49168D01*
X49149Y18014D01*
X49136Y18019D01*
X49127Y18029D01*
X49121Y18038D01*
X49116Y18047D01*
X49114Y18056D01*
Y18062D01*
Y18064D01*
Y18223D01*
X49010D01*
X48992Y18225D01*
X48979Y18230D01*
X48970Y18240D01*
X48964Y18249D01*
X48958Y18258D01*
X48957Y18268D01*
Y18273D01*
Y18275D01*
X48958Y18293D01*
X48964Y18306D01*
X48973Y18316D01*
X48983Y18321D01*
X48994Y18327D01*
X49001Y18329D01*
X49114D01*
Y18486D01*
X49116Y18505D01*
X49121Y18517D01*
X49131Y18527D01*
X49140Y18532D01*
X49151Y18538D01*
X49158Y18540D01*
X49168D01*
X49184Y18538D01*
X49197Y18532D01*
X49207Y18523D01*
X49212Y18514D01*
X49216Y18503D01*
X49220Y18495D01*
Y18488D01*
Y18486D01*
Y18329D01*
X49466D01*
X49275Y18995D01*
X49273Y19006D01*
Y19008D01*
Y19010D01*
X49275Y19029D01*
X49281Y19042D01*
X49290Y19051D01*
X49299Y19056D01*
X49308Y19062D01*
X49318Y19064D01*
X49325D01*
X49338Y19062D01*
D02*
G37*
G36*
X50101Y19060D02*
X50138Y19051D01*
X50169Y19040D01*
X50197Y19025D01*
X50219Y19010D01*
X50234Y18999D01*
X50245Y18990D01*
X50249Y18986D01*
X50275Y18956D01*
X50294Y18925D01*
X50306Y18893D01*
X50316Y18864D01*
X50321Y18840D01*
X50323Y18819D01*
X50325Y18812D01*
Y18806D01*
Y18803D01*
Y18801D01*
Y18275D01*
X50321Y18236D01*
X50314Y18199D01*
X50301Y18168D01*
X50286Y18140D01*
X50273Y18118D01*
X50260Y18103D01*
X50253Y18092D01*
X50249Y18088D01*
X50219Y18062D01*
X50186Y18043D01*
X50157Y18031D01*
X50127Y18021D01*
X50101Y18016D01*
X50081Y18014D01*
X50073Y18012D01*
X49853D01*
X49834Y18014D01*
X49821Y18019D01*
X49812Y18029D01*
X49807Y18038D01*
X49801Y18047D01*
X49799Y18056D01*
Y18062D01*
Y18064D01*
X49801Y18082D01*
X49807Y18095D01*
X49816Y18105D01*
X49825Y18110D01*
X49836Y18116D01*
X49844Y18118D01*
X50062D01*
X50086Y18119D01*
X50108Y18125D01*
X50127Y18132D01*
X50144Y18140D01*
X50157Y18147D01*
X50166Y18155D01*
X50173Y18160D01*
X50175Y18162D01*
X50190Y18181D01*
X50201Y18199D01*
X50208Y18218D01*
X50214Y18236D01*
X50218Y18251D01*
X50219Y18264D01*
Y18271D01*
Y18275D01*
Y18799D01*
X50218Y18823D01*
X50212Y18845D01*
X50205Y18864D01*
X50197Y18880D01*
X50190Y18893D01*
X50182Y18904D01*
X50177Y18910D01*
X50175Y18912D01*
X50157Y18927D01*
X50138Y18938D01*
X50119Y18947D01*
X50101Y18953D01*
X50086Y18956D01*
X50073Y18958D01*
X49853D01*
X49834Y18960D01*
X49821Y18966D01*
X49812Y18975D01*
X49807Y18984D01*
X49801Y18993D01*
X49799Y19003D01*
Y19008D01*
Y19010D01*
X49801Y19029D01*
X49807Y19042D01*
X49816Y19051D01*
X49825Y19056D01*
X49836Y19062D01*
X49844Y19064D01*
X50062D01*
X50101Y19060D01*
D02*
G37*
G36*
X49306Y23835D02*
X49343Y23826D01*
X49374Y23815D01*
X49402Y23800D01*
X49424Y23785D01*
X49439Y23774D01*
X49450Y23765D01*
X49454Y23761D01*
X49480Y23731D01*
X49499Y23700D01*
X49511Y23668D01*
X49521Y23639D01*
X49526Y23615D01*
X49528Y23594D01*
X49530Y23587D01*
Y23581D01*
Y23578D01*
Y23576D01*
Y23050D01*
X49526Y23011D01*
X49519Y22974D01*
X49506Y22943D01*
X49491Y22915D01*
X49478Y22893D01*
X49465Y22878D01*
X49458Y22867D01*
X49454Y22863D01*
X49424Y22837D01*
X49391Y22818D01*
X49361Y22806D01*
X49332Y22796D01*
X49306Y22791D01*
X49286Y22789D01*
X49278Y22787D01*
X49058D01*
X49039Y22789D01*
X49026Y22794D01*
X49017Y22804D01*
X49012Y22813D01*
X49006Y22822D01*
X49004Y22831D01*
Y22837D01*
Y22839D01*
X49006Y22857D01*
X49012Y22870D01*
X49021Y22880D01*
X49030Y22885D01*
X49041Y22891D01*
X49049Y22893D01*
X49267D01*
X49291Y22894D01*
X49313Y22900D01*
X49332Y22907D01*
X49349Y22915D01*
X49361Y22922D01*
X49371Y22930D01*
X49378Y22935D01*
X49380Y22937D01*
X49395Y22955D01*
X49406Y22974D01*
X49413Y22993D01*
X49419Y23011D01*
X49423Y23026D01*
X49424Y23039D01*
Y23046D01*
Y23050D01*
Y23574D01*
X49423Y23598D01*
X49417Y23620D01*
X49410Y23639D01*
X49402Y23655D01*
X49395Y23668D01*
X49387Y23680D01*
X49382Y23685D01*
X49380Y23687D01*
X49361Y23702D01*
X49343Y23713D01*
X49324Y23722D01*
X49306Y23728D01*
X49291Y23731D01*
X49278Y23733D01*
X49058D01*
X49039Y23735D01*
X49026Y23741D01*
X49017Y23750D01*
X49012Y23759D01*
X49006Y23768D01*
X49004Y23778D01*
Y23783D01*
Y23785D01*
X49006Y23804D01*
X49012Y23817D01*
X49021Y23826D01*
X49030Y23831D01*
X49041Y23837D01*
X49049Y23839D01*
X49267D01*
X49306Y23835D01*
D02*
G37*
G36*
X48758Y23837D02*
X48771Y23831D01*
X48780Y23822D01*
X48786Y23813D01*
X48789Y23802D01*
X48793Y23794D01*
Y23787D01*
Y23785D01*
X48791Y23768D01*
X48786Y23755D01*
X48776Y23746D01*
X48767Y23741D01*
X48758Y23737D01*
X48749Y23733D01*
X48388D01*
X48469Y23365D01*
X48532Y23367D01*
X48549Y23365D01*
X48562Y23359D01*
X48571Y23350D01*
X48576Y23341D01*
X48580Y23330D01*
X48584Y23322D01*
Y23315D01*
Y23313D01*
X48582Y23296D01*
X48576Y23283D01*
X48567Y23274D01*
X48558Y23268D01*
X48549Y23265D01*
X48539Y23261D01*
X48491D01*
X48582Y22850D01*
X48584Y22843D01*
Y22841D01*
Y22839D01*
X48582Y22822D01*
X48575Y22809D01*
X48567Y22800D01*
X48556Y22794D01*
X48547Y22791D01*
X48538Y22787D01*
X48530D01*
X48515Y22789D01*
X48504Y22793D01*
X48497Y22800D01*
X48489Y22807D01*
X48486Y22815D01*
X48482Y22822D01*
X48480Y22826D01*
Y22828D01*
X48384Y23259D01*
X48321Y23261D01*
X48302Y23263D01*
X48289Y23268D01*
X48280Y23278D01*
X48275Y23287D01*
X48269Y23296D01*
X48267Y23305D01*
Y23311D01*
Y23313D01*
X48269Y23331D01*
X48275Y23344D01*
X48284Y23354D01*
X48293Y23359D01*
X48304Y23365D01*
X48312Y23367D01*
X48360D01*
X48269Y23774D01*
X48267Y23783D01*
Y23787D01*
X48271Y23804D01*
X48276Y23817D01*
X48286Y23826D01*
X48295Y23833D01*
X48304Y23837D01*
X48313Y23839D01*
X48741D01*
X48758Y23837D01*
D02*
G37*
G36*
X85320Y22025D02*
X85357Y22016D01*
X85388Y22005D01*
X85416Y21990D01*
X85438Y21975D01*
X85453Y21964D01*
X85464Y21955D01*
X85468Y21951D01*
X85494Y21921D01*
X85513Y21890D01*
X85525Y21858D01*
X85535Y21829D01*
X85540Y21805D01*
X85542Y21784D01*
X85544Y21777D01*
Y21771D01*
Y21768D01*
Y21766D01*
Y21240D01*
X85540Y21201D01*
X85533Y21164D01*
X85520Y21133D01*
X85505Y21105D01*
X85492Y21083D01*
X85479Y21068D01*
X85472Y21057D01*
X85468Y21053D01*
X85438Y21027D01*
X85405Y21008D01*
X85376Y20996D01*
X85346Y20986D01*
X85320Y20981D01*
X85300Y20979D01*
X85292Y20977D01*
X85072D01*
X85053Y20979D01*
X85040Y20984D01*
X85031Y20994D01*
X85026Y21003D01*
X85020Y21012D01*
X85018Y21021D01*
Y21027D01*
Y21029D01*
X85020Y21047D01*
X85026Y21060D01*
X85035Y21070D01*
X85044Y21075D01*
X85055Y21081D01*
X85063Y21083D01*
X85281D01*
X85305Y21084D01*
X85327Y21090D01*
X85346Y21097D01*
X85363Y21105D01*
X85376Y21112D01*
X85385Y21120D01*
X85392Y21125D01*
X85394Y21127D01*
X85409Y21146D01*
X85420Y21164D01*
X85427Y21183D01*
X85433Y21201D01*
X85437Y21216D01*
X85438Y21229D01*
Y21236D01*
Y21240D01*
Y21764D01*
X85437Y21788D01*
X85431Y21810D01*
X85424Y21829D01*
X85416Y21845D01*
X85409Y21858D01*
X85401Y21869D01*
X85396Y21875D01*
X85394Y21877D01*
X85376Y21892D01*
X85357Y21903D01*
X85338Y21912D01*
X85320Y21918D01*
X85305Y21921D01*
X85292Y21923D01*
X85072D01*
X85053Y21925D01*
X85040Y21931D01*
X85031Y21940D01*
X85026Y21949D01*
X85020Y21958D01*
X85018Y21968D01*
Y21973D01*
Y21975D01*
X85020Y21994D01*
X85026Y22007D01*
X85035Y22016D01*
X85044Y22021D01*
X85055Y22027D01*
X85063Y22029D01*
X85281D01*
X85320Y22025D01*
D02*
G37*
G36*
X84772Y22027D02*
X84785Y22021D01*
X84794Y22012D01*
X84800Y22003D01*
X84803Y21992D01*
X84807Y21984D01*
Y21977D01*
Y21975D01*
Y21555D01*
X84805Y21538D01*
X84800Y21525D01*
X84790Y21516D01*
X84781Y21510D01*
X84772Y21507D01*
X84763Y21503D01*
X84544D01*
X84520Y21501D01*
X84500Y21495D01*
X84481Y21488D01*
X84464Y21481D01*
X84452Y21471D01*
X84440Y21464D01*
X84435Y21458D01*
X84433Y21457D01*
X84418Y21438D01*
X84407Y21420D01*
X84398Y21401D01*
X84392Y21383D01*
X84389Y21368D01*
X84387Y21355D01*
Y21347D01*
Y21344D01*
Y21240D01*
X84389Y21216D01*
X84394Y21194D01*
X84402Y21175D01*
X84409Y21158D01*
X84418Y21146D01*
X84426Y21136D01*
X84431Y21129D01*
X84433Y21127D01*
X84452Y21112D01*
X84470Y21101D01*
X84489Y21094D01*
X84505Y21088D01*
X84522Y21084D01*
X84533Y21083D01*
X84755D01*
X84772Y21081D01*
X84785Y21075D01*
X84794Y21066D01*
X84800Y21057D01*
X84803Y21046D01*
X84807Y21038D01*
Y21031D01*
Y21029D01*
X84805Y21012D01*
X84800Y20999D01*
X84790Y20990D01*
X84781Y20984D01*
X84772Y20981D01*
X84763Y20977D01*
X84544D01*
X84505Y20981D01*
X84470Y20988D01*
X84439Y21001D01*
X84411Y21016D01*
X84389Y21029D01*
X84372Y21042D01*
X84363Y21049D01*
X84359Y21053D01*
X84333Y21083D01*
X84314Y21116D01*
X84300Y21146D01*
X84290Y21175D01*
X84285Y21201D01*
X84283Y21221D01*
X84281Y21229D01*
Y21234D01*
Y21238D01*
Y21240D01*
Y21344D01*
X84285Y21383D01*
X84294Y21420D01*
X84305Y21451D01*
X84320Y21479D01*
X84335Y21501D01*
X84346Y21518D01*
X84355Y21527D01*
X84359Y21531D01*
X84389Y21557D01*
X84420Y21575D01*
X84452Y21590D01*
X84479Y21599D01*
X84505Y21605D01*
X84526Y21607D01*
X84533Y21608D01*
X84701D01*
Y21923D01*
X84387D01*
X84368Y21925D01*
X84355Y21931D01*
X84346Y21940D01*
X84340Y21949D01*
X84335Y21958D01*
X84333Y21968D01*
Y21973D01*
Y21975D01*
X84335Y21994D01*
X84340Y22007D01*
X84350Y22016D01*
X84359Y22021D01*
X84370Y22027D01*
X84377Y22029D01*
X84755D01*
X84772Y22027D01*
D02*
G37*
G36*
X76487Y12423D02*
X76500Y12417D01*
X76509Y12410D01*
X76511Y12408D01*
X76513Y12406D01*
X76718Y12201D01*
X76727Y12188D01*
X76731Y12177D01*
X76733Y12168D01*
Y12166D01*
Y12164D01*
X76731Y12145D01*
X76726Y12132D01*
X76716Y12123D01*
X76707Y12118D01*
X76698Y12114D01*
X76689Y12110D01*
X76681D01*
X76666Y12112D01*
X76653Y12118D01*
X76646Y12123D01*
X76644Y12125D01*
X76522Y12247D01*
Y11427D01*
X76520Y11410D01*
X76515Y11397D01*
X76505Y11388D01*
X76496Y11382D01*
X76487Y11379D01*
X76478Y11375D01*
X76470D01*
X76452Y11377D01*
X76439Y11382D01*
X76429Y11392D01*
X76424Y11401D01*
X76418Y11410D01*
X76416Y11419D01*
Y11425D01*
Y11427D01*
Y12373D01*
X76418Y12392D01*
X76424Y12405D01*
X76433Y12414D01*
X76442Y12419D01*
X76453Y12425D01*
X76461Y12427D01*
X76478D01*
X76487Y12423D01*
D02*
G37*
G36*
X77246D02*
X77283Y12414D01*
X77314Y12403D01*
X77342Y12388D01*
X77364Y12373D01*
X77379Y12362D01*
X77390Y12353D01*
X77394Y12349D01*
X77420Y12319D01*
X77439Y12288D01*
X77451Y12256D01*
X77461Y12227D01*
X77466Y12203D01*
X77468Y12182D01*
X77470Y12175D01*
Y12169D01*
Y12166D01*
Y12164D01*
Y11638D01*
X77466Y11599D01*
X77459Y11562D01*
X77446Y11531D01*
X77431Y11503D01*
X77418Y11481D01*
X77405Y11466D01*
X77398Y11455D01*
X77394Y11451D01*
X77364Y11425D01*
X77331Y11406D01*
X77301Y11394D01*
X77272Y11384D01*
X77246Y11379D01*
X77226Y11377D01*
X77218Y11375D01*
X76998D01*
X76979Y11377D01*
X76966Y11382D01*
X76957Y11392D01*
X76952Y11401D01*
X76946Y11410D01*
X76944Y11419D01*
Y11425D01*
Y11427D01*
X76946Y11445D01*
X76952Y11458D01*
X76961Y11468D01*
X76970Y11473D01*
X76981Y11479D01*
X76989Y11481D01*
X77207D01*
X77231Y11482D01*
X77253Y11488D01*
X77272Y11495D01*
X77289Y11503D01*
X77301Y11510D01*
X77311Y11518D01*
X77318Y11523D01*
X77320Y11525D01*
X77335Y11543D01*
X77346Y11562D01*
X77353Y11581D01*
X77359Y11599D01*
X77363Y11614D01*
X77364Y11627D01*
Y11634D01*
Y11638D01*
Y12162D01*
X77363Y12186D01*
X77357Y12208D01*
X77350Y12227D01*
X77342Y12243D01*
X77335Y12256D01*
X77327Y12267D01*
X77322Y12273D01*
X77320Y12275D01*
X77301Y12290D01*
X77283Y12301D01*
X77264Y12310D01*
X77246Y12316D01*
X77231Y12319D01*
X77218Y12321D01*
X76998D01*
X76979Y12323D01*
X76966Y12329D01*
X76957Y12338D01*
X76952Y12347D01*
X76946Y12356D01*
X76944Y12366D01*
Y12371D01*
Y12373D01*
X76946Y12392D01*
X76952Y12405D01*
X76961Y12414D01*
X76970Y12419D01*
X76981Y12425D01*
X76989Y12427D01*
X77207D01*
X77246Y12423D01*
D02*
G37*
G36*
X75630Y22850D02*
X75658Y22844D01*
X75683Y22835D01*
X75709Y22822D01*
X75732Y22807D01*
X75752Y22792D01*
X75772Y22776D01*
X75791Y22757D01*
X75806Y22741D01*
X75820Y22722D01*
X75832Y22707D01*
X75841Y22692D01*
X75850Y22680D01*
X75856Y22670D01*
X75857Y22665D01*
X75859Y22663D01*
X75863Y22648D01*
Y22642D01*
Y22641D01*
X75861Y22624D01*
X75856Y22611D01*
X75846Y22602D01*
X75837Y22596D01*
X75828Y22593D01*
X75819Y22589D01*
X75811D01*
X75800Y22591D01*
X75791Y22593D01*
X75778Y22602D01*
X75769Y22611D01*
X75767Y22613D01*
Y22615D01*
X75752Y22639D01*
X75737Y22657D01*
X75724Y22676D01*
X75709Y22691D01*
X75695Y22704D01*
X75682Y22715D01*
X75669Y22722D01*
X75656Y22730D01*
X75633Y22739D01*
X75617Y22744D01*
X75606Y22746D01*
X75602D01*
X75578Y22744D01*
X75556Y22739D01*
X75537Y22731D01*
X75520Y22724D01*
X75508Y22715D01*
X75496Y22707D01*
X75491Y22702D01*
X75489Y22700D01*
X75474Y22681D01*
X75463Y22663D01*
X75454Y22644D01*
X75448Y22628D01*
X75445Y22611D01*
X75443Y22600D01*
Y22593D01*
Y22589D01*
X75445Y22572D01*
X75446Y22557D01*
X75450Y22543D01*
X75456Y22530D01*
X75461Y22518D01*
X75465Y22509D01*
X75467Y22504D01*
X75469Y22502D01*
X75856Y21881D01*
X75859Y21872D01*
X75861Y21861D01*
X75863Y21856D01*
Y21852D01*
X75861Y21835D01*
X75856Y21822D01*
X75846Y21813D01*
X75837Y21807D01*
X75828Y21804D01*
X75819Y21800D01*
X75391D01*
X75372Y21802D01*
X75359Y21807D01*
X75350Y21817D01*
X75345Y21826D01*
X75339Y21835D01*
X75337Y21844D01*
Y21850D01*
Y21852D01*
X75339Y21870D01*
X75345Y21883D01*
X75354Y21893D01*
X75363Y21898D01*
X75374Y21904D01*
X75382Y21906D01*
X75717D01*
X75385Y22437D01*
X75369Y22465D01*
X75358Y22493D01*
X75348Y22518D01*
X75343Y22541D01*
X75339Y22561D01*
X75337Y22576D01*
Y22585D01*
Y22589D01*
X75341Y22628D01*
X75350Y22663D01*
X75361Y22694D01*
X75376Y22722D01*
X75391Y22744D01*
X75402Y22761D01*
X75411Y22770D01*
X75415Y22774D01*
X75445Y22800D01*
X75476Y22818D01*
X75508Y22833D01*
X75537Y22842D01*
X75561Y22848D01*
X75582Y22850D01*
X75589Y22852D01*
X75600D01*
X75630Y22850D01*
D02*
G37*
G36*
X76376Y22848D02*
X76413Y22839D01*
X76444Y22828D01*
X76472Y22813D01*
X76494Y22798D01*
X76509Y22787D01*
X76520Y22778D01*
X76524Y22774D01*
X76550Y22744D01*
X76569Y22713D01*
X76581Y22681D01*
X76591Y22652D01*
X76596Y22628D01*
X76598Y22607D01*
X76600Y22600D01*
Y22594D01*
Y22591D01*
Y22589D01*
Y22063D01*
X76596Y22024D01*
X76589Y21987D01*
X76576Y21956D01*
X76561Y21928D01*
X76548Y21906D01*
X76535Y21891D01*
X76528Y21880D01*
X76524Y21876D01*
X76494Y21850D01*
X76461Y21831D01*
X76432Y21819D01*
X76402Y21809D01*
X76376Y21804D01*
X76356Y21802D01*
X76348Y21800D01*
X76128D01*
X76109Y21802D01*
X76096Y21807D01*
X76087Y21817D01*
X76082Y21826D01*
X76076Y21835D01*
X76074Y21844D01*
Y21850D01*
Y21852D01*
X76076Y21870D01*
X76082Y21883D01*
X76091Y21893D01*
X76100Y21898D01*
X76111Y21904D01*
X76119Y21906D01*
X76337D01*
X76361Y21907D01*
X76383Y21913D01*
X76402Y21920D01*
X76419Y21928D01*
X76432Y21935D01*
X76441Y21943D01*
X76448Y21948D01*
X76450Y21950D01*
X76465Y21969D01*
X76476Y21987D01*
X76483Y22006D01*
X76489Y22024D01*
X76493Y22039D01*
X76494Y22052D01*
Y22059D01*
Y22063D01*
Y22587D01*
X76493Y22611D01*
X76487Y22633D01*
X76480Y22652D01*
X76472Y22668D01*
X76465Y22681D01*
X76457Y22692D01*
X76452Y22698D01*
X76450Y22700D01*
X76432Y22715D01*
X76413Y22726D01*
X76394Y22735D01*
X76376Y22741D01*
X76361Y22744D01*
X76348Y22746D01*
X76128D01*
X76109Y22748D01*
X76096Y22754D01*
X76087Y22763D01*
X76082Y22772D01*
X76076Y22781D01*
X76074Y22791D01*
Y22796D01*
Y22798D01*
X76076Y22817D01*
X76082Y22830D01*
X76091Y22839D01*
X76100Y22844D01*
X76111Y22850D01*
X76119Y22852D01*
X76337D01*
X76376Y22848D01*
D02*
G37*
%LPC*%
G36*
X31632Y946D02*
X31423D01*
X31399Y944D01*
X31376Y939D01*
X31358Y931D01*
X31341Y924D01*
X31328Y915D01*
X31317Y907D01*
X31312Y902D01*
X31310Y900D01*
X31295Y881D01*
X31284Y863D01*
X31275Y844D01*
X31269Y828D01*
X31265Y811D01*
X31263Y800D01*
Y793D01*
Y789D01*
X31265Y765D01*
X31271Y743D01*
X31278Y724D01*
X31286Y707D01*
X31295Y694D01*
X31302Y685D01*
X31308Y678D01*
X31310Y676D01*
X31328Y661D01*
X31347Y650D01*
X31365Y643D01*
X31384Y637D01*
X31399Y633D01*
X31412Y631D01*
X31632D01*
Y946D01*
D02*
G37*
G36*
Y526D02*
X31423D01*
X31391Y524D01*
X31362Y517D01*
X31336Y507D01*
X31313Y496D01*
X31297Y483D01*
X31284Y474D01*
X31275Y467D01*
X31273Y465D01*
X31252Y441D01*
X31237Y415D01*
X31226Y391D01*
X31219Y367D01*
X31215Y346D01*
X31212Y330D01*
Y318D01*
Y317D01*
Y315D01*
X31213Y283D01*
X31221Y254D01*
X31230Y228D01*
X31241Y207D01*
X31254Y189D01*
X31263Y176D01*
X31271Y169D01*
X31273Y165D01*
X31297Y144D01*
X31323Y131D01*
X31347Y120D01*
X31371Y113D01*
X31391Y109D01*
X31408Y107D01*
X31419Y106D01*
X31632D01*
Y526D01*
D02*
G37*
G36*
X-1521Y9171D02*
X-1782D01*
X-1806Y9169D01*
X-1828Y9164D01*
X-1846Y9156D01*
X-1863Y9149D01*
X-1876Y9140D01*
X-1887Y9132D01*
X-1893Y9127D01*
X-1895Y9125D01*
X-1909Y9106D01*
X-1921Y9088D01*
X-1930Y9069D01*
X-1935Y9051D01*
X-1939Y9036D01*
X-1941Y9023D01*
Y9016D01*
Y9012D01*
Y8488D01*
X-1939Y8464D01*
X-1933Y8442D01*
X-1926Y8423D01*
X-1919Y8406D01*
X-1909Y8394D01*
X-1902Y8384D01*
X-1896Y8377D01*
X-1895Y8375D01*
X-1876Y8360D01*
X-1858Y8349D01*
X-1839Y8342D01*
X-1821Y8336D01*
X-1806Y8332D01*
X-1793Y8331D01*
X-1521D01*
Y9171D01*
D02*
G37*
G36*
X36055Y946D02*
X35794D01*
X35770Y944D01*
X35748Y939D01*
X35730Y931D01*
X35713Y924D01*
X35700Y915D01*
X35689Y907D01*
X35683Y902D01*
X35681Y900D01*
X35667Y881D01*
X35655Y863D01*
X35646Y844D01*
X35641Y826D01*
X35637Y811D01*
X35635Y798D01*
Y791D01*
Y787D01*
Y263D01*
X35637Y239D01*
X35643Y217D01*
X35650Y198D01*
X35657Y181D01*
X35667Y169D01*
X35674Y159D01*
X35680Y152D01*
X35681Y150D01*
X35700Y135D01*
X35718Y124D01*
X35737Y117D01*
X35755Y111D01*
X35770Y107D01*
X35783Y106D01*
X36055D01*
Y946D01*
D02*
G37*
G36*
X46568Y4915D02*
X46358D01*
X46327Y4913D01*
X46297Y4905D01*
X46271Y4896D01*
X46249Y4885D01*
X46232Y4872D01*
X46219Y4863D01*
X46210Y4855D01*
X46208Y4854D01*
X46188Y4830D01*
X46173Y4804D01*
X46162Y4780D01*
X46155Y4755D01*
X46151Y4735D01*
X46147Y4718D01*
Y4707D01*
Y4705D01*
Y4704D01*
X46149Y4672D01*
X46156Y4643D01*
X46166Y4617D01*
X46177Y4596D01*
X46190Y4578D01*
X46199Y4565D01*
X46206Y4557D01*
X46208Y4554D01*
X46232Y4533D01*
X46258Y4520D01*
X46282Y4509D01*
X46306Y4502D01*
X46327Y4498D01*
X46343Y4496D01*
X46355Y4494D01*
X46568D01*
Y4915D01*
D02*
G37*
G36*
X45045D02*
X45042D01*
X45025Y4913D01*
X45012Y4907D01*
X44997Y4898D01*
X44984Y4887D01*
X44973Y4874D01*
X44962Y4859D01*
X44945Y4828D01*
X44931Y4794D01*
X44927Y4780D01*
X44921Y4767D01*
X44918Y4755D01*
X44916Y4746D01*
X44914Y4741D01*
Y4739D01*
X44905Y4696D01*
X44897Y4652D01*
X44892Y4611D01*
X44888Y4574D01*
X44886Y4541D01*
X44884Y4528D01*
Y4517D01*
Y4507D01*
Y4500D01*
Y4496D01*
Y4494D01*
X44886Y4446D01*
X44888Y4400D01*
X44894Y4359D01*
X44899Y4322D01*
X44905Y4291D01*
X44907Y4280D01*
X44908Y4268D01*
X44910Y4259D01*
X44912Y4254D01*
X44914Y4250D01*
Y4248D01*
X44921Y4217D01*
X44931Y4191D01*
X44942Y4167D01*
X44951Y4148D01*
X44962Y4131D01*
X44971Y4117D01*
X44983Y4106D01*
X44994Y4096D01*
X45003Y4089D01*
X45012Y4083D01*
X45027Y4078D01*
X45038Y4074D01*
X45042D01*
X45058Y4076D01*
X45073Y4081D01*
X45086Y4091D01*
X45099Y4102D01*
X45110Y4115D01*
X45121Y4130D01*
X45140Y4161D01*
X45153Y4193D01*
X45158Y4207D01*
X45164Y4220D01*
X45168Y4231D01*
X45170Y4241D01*
X45171Y4246D01*
Y4248D01*
X45181Y4293D01*
X45188Y4335D01*
X45192Y4376D01*
X45195Y4415D01*
X45197Y4446D01*
X45199Y4461D01*
Y4472D01*
Y4481D01*
Y4489D01*
Y4493D01*
Y4494D01*
X45197Y4541D01*
X45195Y4585D01*
X45190Y4628D01*
X45184Y4665D01*
X45181Y4694D01*
X45177Y4707D01*
X45175Y4718D01*
X45173Y4728D01*
Y4733D01*
X45171Y4737D01*
Y4739D01*
X45162Y4770D01*
X45153Y4796D01*
X45144Y4820D01*
X45133Y4841D01*
X45123Y4857D01*
X45112Y4872D01*
X45101Y4883D01*
X45090Y4892D01*
X45081Y4900D01*
X45071Y4905D01*
X45057Y4913D01*
X45045Y4915D01*
D02*
G37*
G36*
X53568D02*
X53358D01*
X53327Y4913D01*
X53297Y4905D01*
X53271Y4896D01*
X53249Y4885D01*
X53232Y4872D01*
X53219Y4863D01*
X53210Y4855D01*
X53208Y4854D01*
X53188Y4830D01*
X53173Y4804D01*
X53162Y4780D01*
X53155Y4755D01*
X53151Y4735D01*
X53147Y4718D01*
Y4707D01*
Y4705D01*
Y4704D01*
X53149Y4672D01*
X53156Y4643D01*
X53166Y4617D01*
X53177Y4596D01*
X53190Y4578D01*
X53199Y4565D01*
X53206Y4557D01*
X53208Y4554D01*
X53232Y4533D01*
X53258Y4520D01*
X53282Y4509D01*
X53306Y4502D01*
X53327Y4498D01*
X53344Y4496D01*
X53355Y4494D01*
X53568D01*
Y4915D01*
D02*
G37*
G36*
X52579D02*
X52568D01*
X52544Y4913D01*
X52523Y4907D01*
X52505Y4900D01*
X52488Y4892D01*
X52475Y4883D01*
X52464Y4876D01*
X52458Y4870D01*
X52457Y4868D01*
X52442Y4850D01*
X52431Y4831D01*
X52421Y4813D01*
X52416Y4794D01*
X52412Y4780D01*
X52410Y4767D01*
Y4759D01*
Y4755D01*
Y4494D01*
X52568D01*
X52592Y4496D01*
X52614Y4502D01*
X52632Y4509D01*
X52649Y4517D01*
X52662Y4524D01*
X52671Y4531D01*
X52679Y4537D01*
X52681Y4539D01*
X52695Y4557D01*
X52707Y4576D01*
X52714Y4594D01*
X52720Y4613D01*
X52723Y4628D01*
X52725Y4641D01*
Y4648D01*
Y4652D01*
Y4755D01*
X52723Y4780D01*
X52718Y4802D01*
X52710Y4820D01*
X52703Y4837D01*
X52695Y4850D01*
X52688Y4861D01*
X52682Y4867D01*
X52681Y4868D01*
X52662Y4883D01*
X52644Y4894D01*
X52625Y4904D01*
X52607Y4909D01*
X52592Y4913D01*
X52579Y4915D01*
D02*
G37*
G36*
X58920Y18815D02*
X58916D01*
X58900Y18813D01*
X58887Y18807D01*
X58872Y18798D01*
X58859Y18787D01*
X58848Y18774D01*
X58837Y18759D01*
X58820Y18728D01*
X58805Y18694D01*
X58802Y18680D01*
X58796Y18667D01*
X58792Y18655D01*
X58790Y18646D01*
X58789Y18641D01*
Y18639D01*
X58779Y18596D01*
X58772Y18552D01*
X58766Y18511D01*
X58763Y18474D01*
X58761Y18441D01*
X58759Y18428D01*
Y18417D01*
Y18407D01*
Y18400D01*
Y18396D01*
Y18394D01*
X58761Y18346D01*
X58763Y18300D01*
X58768Y18259D01*
X58774Y18222D01*
X58779Y18191D01*
X58781Y18180D01*
X58783Y18168D01*
X58785Y18159D01*
X58787Y18154D01*
X58789Y18150D01*
Y18148D01*
X58796Y18117D01*
X58805Y18091D01*
X58816Y18067D01*
X58826Y18048D01*
X58837Y18031D01*
X58846Y18017D01*
X58857Y18006D01*
X58868Y17996D01*
X58877Y17989D01*
X58887Y17983D01*
X58902Y17978D01*
X58913Y17974D01*
X58916D01*
X58933Y17976D01*
X58948Y17981D01*
X58961Y17991D01*
X58974Y18002D01*
X58985Y18015D01*
X58996Y18030D01*
X59014Y18061D01*
X59027Y18093D01*
X59033Y18107D01*
X59039Y18120D01*
X59042Y18131D01*
X59044Y18141D01*
X59046Y18146D01*
Y18148D01*
X59055Y18193D01*
X59063Y18235D01*
X59066Y18276D01*
X59070Y18315D01*
X59072Y18346D01*
X59074Y18361D01*
Y18372D01*
Y18381D01*
Y18389D01*
Y18393D01*
Y18394D01*
X59072Y18441D01*
X59070Y18485D01*
X59064Y18528D01*
X59059Y18565D01*
X59055Y18594D01*
X59051Y18607D01*
X59050Y18618D01*
X59048Y18628D01*
Y18633D01*
X59046Y18637D01*
Y18639D01*
X59037Y18670D01*
X59027Y18696D01*
X59018Y18720D01*
X59007Y18741D01*
X58998Y18757D01*
X58987Y18772D01*
X58976Y18783D01*
X58964Y18792D01*
X58955Y18800D01*
X58946Y18805D01*
X58931Y18813D01*
X58920Y18815D01*
D02*
G37*
G36*
X49811Y27546D02*
X49800D01*
X49776Y27544D01*
X49756Y27539D01*
X49737Y27531D01*
X49720Y27524D01*
X49708Y27515D01*
X49696Y27507D01*
X49691Y27502D01*
X49689Y27500D01*
X49674Y27481D01*
X49663Y27463D01*
X49654Y27444D01*
X49648Y27426D01*
X49645Y27411D01*
X49643Y27398D01*
Y27391D01*
Y27387D01*
Y27126D01*
X49800D01*
X49824Y27128D01*
X49846Y27133D01*
X49865Y27141D01*
X49882Y27148D01*
X49895Y27156D01*
X49904Y27163D01*
X49911Y27168D01*
X49913Y27170D01*
X49928Y27189D01*
X49939Y27207D01*
X49946Y27226D01*
X49952Y27244D01*
X49956Y27259D01*
X49957Y27272D01*
Y27280D01*
Y27283D01*
Y27387D01*
X49956Y27411D01*
X49950Y27433D01*
X49943Y27452D01*
X49935Y27468D01*
X49928Y27481D01*
X49920Y27493D01*
X49915Y27498D01*
X49913Y27500D01*
X49895Y27515D01*
X49876Y27526D01*
X49858Y27535D01*
X49839Y27541D01*
X49824Y27544D01*
X49811Y27546D01*
D02*
G37*
G36*
X57780Y27619D02*
X57769D01*
X57745Y27617D01*
X57725Y27612D01*
X57706Y27604D01*
X57689Y27597D01*
X57677Y27588D01*
X57665Y27580D01*
X57660Y27575D01*
X57658Y27573D01*
X57643Y27554D01*
X57632Y27536D01*
X57623Y27517D01*
X57617Y27501D01*
X57614Y27484D01*
X57612Y27473D01*
Y27466D01*
Y27462D01*
X57614Y27438D01*
X57619Y27416D01*
X57627Y27397D01*
X57634Y27380D01*
X57643Y27367D01*
X57651Y27358D01*
X57656Y27351D01*
X57658Y27349D01*
X57677Y27334D01*
X57695Y27323D01*
X57714Y27316D01*
X57730Y27310D01*
X57747Y27306D01*
X57758Y27305D01*
X57769D01*
X57793Y27306D01*
X57815Y27312D01*
X57834Y27319D01*
X57851Y27327D01*
X57864Y27334D01*
X57873Y27342D01*
X57880Y27347D01*
X57882Y27349D01*
X57897Y27367D01*
X57908Y27386D01*
X57915Y27404D01*
X57921Y27423D01*
X57925Y27438D01*
X57926Y27451D01*
Y27458D01*
Y27462D01*
X57925Y27486D01*
X57919Y27506D01*
X57912Y27525D01*
X57904Y27542D01*
X57897Y27554D01*
X57889Y27566D01*
X57884Y27571D01*
X57882Y27573D01*
X57864Y27588D01*
X57845Y27599D01*
X57827Y27608D01*
X57808Y27614D01*
X57793Y27617D01*
X57780Y27619D01*
D02*
G37*
G36*
Y27199D02*
X57769D01*
X57745Y27197D01*
X57725Y27192D01*
X57706Y27184D01*
X57689Y27177D01*
X57677Y27167D01*
X57665Y27160D01*
X57660Y27155D01*
X57658Y27153D01*
X57643Y27134D01*
X57632Y27116D01*
X57623Y27097D01*
X57617Y27079D01*
X57614Y27064D01*
X57612Y27051D01*
Y27043D01*
Y27040D01*
Y26936D01*
X57614Y26912D01*
X57619Y26890D01*
X57627Y26871D01*
X57634Y26855D01*
X57643Y26842D01*
X57651Y26832D01*
X57656Y26825D01*
X57658Y26823D01*
X57677Y26808D01*
X57695Y26797D01*
X57714Y26790D01*
X57730Y26784D01*
X57747Y26781D01*
X57758Y26779D01*
X57769D01*
X57793Y26781D01*
X57815Y26786D01*
X57834Y26793D01*
X57851Y26801D01*
X57864Y26808D01*
X57873Y26816D01*
X57880Y26821D01*
X57882Y26823D01*
X57897Y26842D01*
X57908Y26860D01*
X57915Y26879D01*
X57921Y26897D01*
X57925Y26912D01*
X57926Y26925D01*
Y26932D01*
Y26936D01*
Y27040D01*
X57925Y27064D01*
X57919Y27086D01*
X57912Y27105D01*
X57904Y27121D01*
X57897Y27134D01*
X57889Y27145D01*
X57884Y27151D01*
X57882Y27153D01*
X57864Y27167D01*
X57845Y27179D01*
X57827Y27188D01*
X57808Y27193D01*
X57793Y27197D01*
X57780Y27199D01*
D02*
G37*
G36*
X85517Y10686D02*
X85360D01*
X85336Y10684D01*
X85316Y10678D01*
X85297Y10671D01*
X85280Y10664D01*
X85268Y10654D01*
X85256Y10647D01*
X85251Y10641D01*
X85249Y10640D01*
X85234Y10621D01*
X85223Y10603D01*
X85214Y10584D01*
X85208Y10566D01*
X85205Y10551D01*
X85203Y10538D01*
Y10530D01*
Y10527D01*
Y10423D01*
X85205Y10399D01*
X85210Y10377D01*
X85218Y10358D01*
X85225Y10341D01*
X85234Y10328D01*
X85242Y10319D01*
X85247Y10312D01*
X85249Y10310D01*
X85268Y10295D01*
X85286Y10284D01*
X85305Y10277D01*
X85321Y10271D01*
X85338Y10267D01*
X85349Y10266D01*
X85360D01*
X85384Y10267D01*
X85406Y10273D01*
X85425Y10280D01*
X85442Y10288D01*
X85455Y10295D01*
X85464Y10303D01*
X85471Y10308D01*
X85473Y10310D01*
X85488Y10328D01*
X85499Y10347D01*
X85506Y10366D01*
X85512Y10384D01*
X85516Y10399D01*
X85517Y10412D01*
Y10419D01*
Y10423D01*
Y10686D01*
D02*
G37*
%LPD*%
D11*
X57350Y16450D02*
G03*
X57050Y16450I-150J0D01*
G01*
X57650D02*
G03*
X57350Y16450I-150J0D01*
G01*
X57950D02*
G03*
X57650Y16450I-150J0D01*
G01*
X52400Y625D02*
X53600D01*
X52400D02*
Y3375D01*
X53600D01*
Y625D02*
Y3375D01*
X53300Y1850D02*
Y2150D01*
X52700Y1850D02*
X53300D01*
Y2000D02*
X53450D01*
X52700Y1850D02*
Y2150D01*
X53300D01*
X52550Y2000D02*
X52700D01*
X45400Y625D02*
X46600D01*
X45400D02*
Y3375D01*
X46600D01*
Y625D02*
Y3375D01*
X46300Y1850D02*
Y2150D01*
X45700Y1850D02*
X46300D01*
Y2000D02*
X46450D01*
X45700Y1850D02*
Y2150D01*
X46300D01*
X45550Y2000D02*
X45700D01*
X56600Y14750D02*
X58400D01*
X56600Y18250D02*
X58400D01*
X56600Y14750D02*
Y18250D01*
X58400Y14750D02*
Y18250D01*
X56950Y16450D02*
X57050D01*
X57950D02*
X58050D01*
X59169Y14525D02*
X60369D01*
X59169D02*
Y17275D01*
X60369D01*
Y14525D02*
Y17275D01*
X59919Y15700D02*
Y16100D01*
Y15900D02*
X60144D01*
X59619Y15700D02*
Y16100D01*
X59394Y15900D02*
X59619D01*
X61503Y15262D02*
X62703D01*
X61503D02*
Y18012D01*
X62703D01*
Y15262D02*
Y18012D01*
X62253Y16437D02*
Y16837D01*
Y16637D02*
X62478D01*
X61953Y16437D02*
Y16837D01*
X61728Y16637D02*
X61953D01*
X61376Y23727D02*
X62576D01*
Y20977D02*
Y23727D01*
X61376Y20977D02*
X62576D01*
X61376D02*
Y23727D01*
X61826Y22152D02*
Y22552D01*
X61601Y22352D02*
X61826D01*
X62126Y22152D02*
Y22552D01*
Y22352D02*
X62351D01*
X62462Y25400D02*
Y26600D01*
X59712Y25400D02*
X62462D01*
X59712D02*
Y26600D01*
X62462D01*
X60887Y26150D02*
X61287D01*
X61087D02*
Y26375D01*
X60887Y25850D02*
X61287D01*
X61087Y25625D02*
Y25850D01*
X53945Y25400D02*
Y26600D01*
X51195Y25400D02*
X53945D01*
X51195D02*
Y26600D01*
X53945D01*
X52370Y26150D02*
X52770D01*
X52570D02*
Y26375D01*
X52370Y25850D02*
X52770D01*
X52570Y25625D02*
Y25850D01*
X51125Y22987D02*
X51350D01*
Y22787D02*
Y23187D01*
X51650Y22987D02*
X51875D01*
X51650Y22787D02*
Y23187D01*
X52100Y21612D02*
Y24362D01*
X50900D02*
X52100D01*
X50900Y21612D02*
Y24362D01*
Y21612D02*
X52100D01*
X51650Y16637D02*
X51875D01*
X51650Y16437D02*
Y16837D01*
X51125Y16637D02*
X51350D01*
Y16437D02*
Y16837D01*
X50900Y15262D02*
Y18012D01*
Y15262D02*
X52100D01*
Y18012D01*
X50900D02*
X52100D01*
X75400Y18125D02*
X76600D01*
X75400D02*
Y20875D01*
X76600D01*
Y18125D02*
Y20875D01*
X76150Y19300D02*
Y19700D01*
Y19500D02*
X76375D01*
X75850Y19300D02*
Y19700D01*
X75625Y19500D02*
X75850D01*
X85344Y9150D02*
Y9375D01*
X85144Y9150D02*
X85544D01*
X85344Y8625D02*
Y8850D01*
X85144D02*
X85544D01*
X83969Y8400D02*
X86719D01*
Y9600D01*
X83969D02*
X86719D01*
X83969Y8400D02*
Y9600D01*
X75400Y7642D02*
X76600D01*
X75400D02*
Y10392D01*
X76600D01*
Y7642D02*
Y10392D01*
X76150Y8817D02*
Y9217D01*
Y9017D02*
X76375D01*
X75850Y8817D02*
Y9217D01*
X75625Y9017D02*
X75850D01*
X85344Y19650D02*
Y19875D01*
X85144Y19650D02*
X85544D01*
X85344Y19125D02*
Y19350D01*
X85144D02*
X85544D01*
X83969Y18900D02*
X86719D01*
Y20100D01*
X83969D02*
X86719D01*
X83969Y18900D02*
Y20100D01*
D12*
X30353Y-3175D02*
Y-635D01*
Y-3175D02*
X32893D01*
Y-635D01*
X30353D02*
X32893D01*
X-3064Y4730D02*
Y7270D01*
Y4730D02*
X-524D01*
Y7270D01*
X-3064D02*
X-524D01*
X34925Y-3175D02*
Y-635D01*
Y-3175D02*
X37465D01*
Y-635D01*
X34925D02*
X37465D01*
M02*
