M48
;Layer_Color=9474304
;FILE_FORMAT=4:3
METRIC,LZ
;TYPE=PLATED
T1F00S00C0.300
T2F00S00C0.800
T3F00S00C1.000
T4F00S00C1.100
%
T01
X00644Y00072
X0074875Y000815
X00747Y000975
X0074725Y001855
X0074675Y0020125
X0084025Y00218
X0084Y001715
X00841Y0011375
X008405Y00067
X0058769Y001065
X00578Y00143
X00598
X0063259Y0015739
X00631Y00174
X00629Y00215
Y00231
X00504Y00233
X00504Y00222
X0050377Y0017226
Y0015801
X0046825Y000885
Y00061
X0056269Y00042
X0053Y0
X0018536Y-00004
X0017536
Y00006
X0018536
X0005157Y0000473
Y-0000527
X0004157
Y0000473
X002325Y001305
X0023652Y0014289
X0024483Y0013566
X002161Y00235
X002061
Y00245
Y00255
X002161
Y00245
X001961
Y00255
X001861
Y00245
Y00235
X001961
X001761
Y00245
Y00255
X001661
Y00245
Y00235
X001561
Y00245
Y00255
Y00265
X001661
X001761
X001861
X001961
X002061
Y00275
Y00285
X002161
Y00275
Y00265
X001961Y00275
Y00285
X001861
Y00275
X001761
Y00285
X001661
Y00275
X001561
Y00285
X00519Y0027
X00533
X00604Y00271
X0061769
T02
X0048325Y-00014
Y00006
X0050325
Y-00014
Y00026
Y00046
Y00066
X0048325
Y00046
Y00026
T03
X0092Y000775
Y001025
Y001825
Y002075
X0044Y0013304
X0036195Y-0001905
X0031623
X0001201Y0006
X-0001794
T04
X0005217Y001275
Y001575
X0008217
Y001275
M30
